<svg xmlns="http://www.w3.org/2000/svg" xml:space="preserve" viewBox="28 91.3 644.8 919.3">
  <path fill="#141212" d="M665 754v.9l1 7v1c.6 5.8 1.3 11 2 16.1v.4l1 7.4c.9 5.5 2 11 2.7 16.6 1.9 15.5 2.3 31-7.6 44.2-3.5 4.7-8.8 8-13.1 12a15.1 15.1 0 0 0-3.2 5.6c-.7 6-5 7-9.3 7.7-7.5 1-13 4.9-17.9 10.4a35 35 0 0 0 21-2c5.6-2.2 11.5-3.6 17.3-5.4a48 48 0 0 1-2.2 46.2 32 32 0 0 1-24 16c-6 .7-12 2.3-17.9 1.7a48.2 48.2 0 0 1-25.3-11.8 43.7 43.7 0 0 1-16.3-30.1c-1-8.6 1.6-16.7 6.5-24l6.5-9.7c-4.2-2.8-8.6-5.7-13.9-9l-7.5 25.4-.8 1.4-.3.1a519 519 0 0 0-8.7 19 72.5 72.5 0 0 1-20.3 22c-6.3 4.5-13.1 8.2-19.6 12.3 3 4.4 6.9 8.8 9.4 13.8 7.6 15 7.7 30-.6 45.2-5.6 10.3-14.4 16.2-25.2 16.1-21.8-.1-44.2 0-62.7-14.6-6.5-5.2-9.2-13-10.9-20.8-1-4.4-1.3-8.9-2.2-13.2-.3-1.2-2-2.8-3.1-2.8-12.1.4-24.2 1-36.3 1.6l-6 .3c-13 .7-25.9 1.7-38.8 1.8-9 .1-18.1-1-27.2-1.5l-6.5-.3c-10.3-.6-10.5-.7-12.3 9.7-1.4 7.7-3 15.2-8.6 20.9a41.4 41.4 0 0 1-10.7 8.5 57.7 57.7 0 0 1-41 5.4c-6.3-1.7-13.1-1.6-19.7-2.5a30.6 30.6 0 0 1-23.5-16.2c-9-15.4-7.8-30.4.2-45.4 1.6-3 4.2-5.5 6.8-9l-4-1.4c-6-2.2-12.4-3.7-18-6.7a75.1 75.1 0 0 1-24.1-20.5 113 113 0 0 1-17-35.7c-1.6-4.8-2.7-9.8-4.3-15.4L111 865.5l4 6a40 40 0 0 1 .4 47.8A37 37 0 0 1 81.8 938c-9.5-.4-19 .5-27.8-4.5a40.6 40.6 0 0 1-21-33.8 44 44 0 0 1 5.4-25 27 27 0 0 1 9-8.8c4.2-3.2 4.2-3.3 0-6.5a42.5 42.5 0 0 1-16.7-22.8 101.4 101.4 0 0 1-.5-44.4c2.6-16.8 4-33.8 5.8-50.8l3-26.6 4-35c.1-.5.4-1 1.1-1.3 1 3.4 1.3 6.7 1.8 10.3 5.3-12.4 10.5-23.8 15-35.4A67.1 67.1 0 0 1 85.5 620c6.6-4.5 9.6-11.2 12.6-19.5l-18 3.7c.9-1 1.6-2.6 2.7-3.1a686 686 0 0 1 27.2-11c8.8 1.8 17 3 24.8 5.7 9.6 3.4 18.8 8 28.4 12.4.4.3.6.6.7 1.3a581 581 0 0 0 3.4 15.5l25-24.8c-4.1-3.4-9-6.9-13.5-11-2.7-2.4-4.5-5.8-7-8.5-1.7-1.9-4.5-3-5.9-5a143 143 0 0 1-10.2-17.2c-3-6-4.9-12.6-7.4-18.8-1-2.5-3.4-4.6-3.8-7.1-1-7.5-6-4.2-10.2-4.9-3.9-.6-7.5-2-12-1l-4-2.9c-.4 4.4-.9 7.8-1.3 11.2a32 32 0 0 1-21.8-1.8c-16.2-6.5-23.9-19.5-27.1-35.8-2.3-11.7-5.5-23.3-6.6-35-1-11.3.2-22.8 1-34 1.8 3.7 3.2 7.2 4.6 10.6l1.8-.4c2-4.5 5.4-9 5.8-13.6a70 70 0 0 1 7.7-27.5c3-5.8 8.4-9.1 13.7-12.3l1.9.6v43.5l2.8-.1v-63c.6-1.6 1.8-3.2 1.7-4.7-.1-1.6-1.4-3.1-2.2-5.4 1.3-6.6 7.4-5.2 11.3-7.8l1.6-.5 1.3-.7c.7 0 1.1-.1 1.7.2-.6 4.4-1.4 8.6-2.2 13 0 .4 0 .6-.4.8-1 0-1.8 0-2.5-.3l.1-1.9c0-1.5.4-3.8-.3-4.3-1.2-.8-3.5-.8-4.6 0-1 .6-1.2 2.8-1 4.3.3 2.4 1.1 4.7 1.7 7.5-.3 6.3-.5 12-1 18l-1 3.8c-.2 1-.1 2-.2 3.1l-.1 2v20.9c.1 4.9.5 9.3.7 14.1v14.9c-.3 3.4 0 6.5-.5 9.4-1.3 7.5 3.5 10.5 9.5 13.6l2.8-6h.6c0-3 0-6-1-8.7-1.1-3.4-3.2-6.4-5-10v-5c.2-19.5.2-38.5.6-57.7 1.3-2.7 2.4-5.3 3.9-8 2.6-.6 5-.7 7.2-1.2 5-1 8.1.7 9 5.8l3.7 21c2.6-.7 3.8.5 4.1 3.9.4 4.6 1.2 9.1 1.8 14.1v7l.2 39c-1.9 10-.8 19.4 2.7 29 .4 1 .8 1.8 1.1 2.9l1.9 2.2.8 3c.4 5.2.7 10 1.3 14.8.2 1.3 1.3 2.6 2.2 3.9 1.2 1.7 3.1 3 3.8 5 1.6 4.4 2.7 9.2 4.1 14l7.4-5.8c-.4 11.7 7.9 7.1 12.7 8l1.8 6.7c2 3.6 2 3.6 6-1 .8-.2 1.2-.3 2-.3.6 0 .8 0 1.1.4 2.1-.2 4.2-.8 6.3-1.4l5.8-2 .3 1.4c-1 1.6-2 3.2-3.3 4.9l-3.1 2.9 1.5 1.2 2.7-3.6 3.8-.7c.8 0 1.3.1 1.8.5 1.6 5.2 3.4 6 8.6 3.8 3.2-1.4 6.3-3 9.8-4.8.3 1.8.6 2.6.6 3.4-.5 4 .5 6.7 5 7.4.9.1 1.8 2.5 2 3.9.1 3.2 1.8 3.5 4.3 2.6 1.4-.5 2.6-1.5 4-1.8 5.1-1 10-4 14.9 2 2.7 3.4 7.7 6.1 13.5 4.3 3-1 6.7-1.5 8 3.2.3.8 2.2 1.2 3.4 1.6 1.9.7 4.2.8 5.5 2 4.3 4 8.7 5.8 14.8 4.2 5.2-1.3 9 1.6 12 6.7.6 1 2.3 1.7 3.7 2 8.7 2 17.4 4.5 26.2 5.5 9.8 1 19.9 1.2 29.7.6 6.3-.4 12.5-2.7 18.6-4.5a49 49 0 0 0 11.1-4.6c4-2.3 7.6-4.2 12.9-3.2 6 1.2 12.7 1.8 16.7-5.1.6-.9 1.9-1.5 3-1.7 10.6-2.4 18-12.1 29.4-13 .5 0 1.2-.5 1.7-1 7-6 15.3-8.7 24.4-8.9 3 0 4.4-.9 4.2-4 0-1.3 0-2.7.4-4 1 0 1.7 0 2.4.2l.2.3a6 6 0 0 0 2.4-.3c6.1-.8 11.9-1.3 17.6-2.3 6.1-1 12.4-2 14.3-9.5.2-.6 1.6-1.4 2.4-1.3 3.7.5 4.3-1.8 4.7-4.7.2-1.8.4-3.9 1.4-5.2 8.7-11.2 9.2-25 12-38 .6-2.9-.4-6.1-.6-9.7l.5-27.5c0-1.7-.7-3.4-1-5.4v-3c0-3.8-.2-7.2-.4-11.1-.2-3.3-.5-6.2-.4-9.4.5-3 .6-5.4.8-8.3-.1-1.2-.3-2-.6-3.3l-1.1-8.9-.3-5v-16l-.4-1.3c0-.4 0-.7.3-1.3.3-1.7.3-2.9.4-4.4.1-.5.1-.7.6-.9 4.8-.2 9-.3 13.3 0 0 2.7.1 5-.1 7.6.1 12.1.7 24 1 35.7.1 4.7 2.2 5.3 6 3.7 0 .2 0 .6-.2.9 0 .6.2 1 .6 1.5.1.2.3.6.1.8 0 .6.2.9.4 1.5.1.7.2 1.2 0 1.9-1.8 7.3 1.4 13.2 4.9 19 .2-1 .3-2.2.8-3.3.8 0 1.3 0 2 .2l4 1.7 1.4-14.5c.9-10.2.4-20.1-6.3-29 .2-8 .5-15.6 1.2-23 1.4 6.2 2.5 12.4 3.6 18.5.3-6.7-.6-13.3-1.7-20 0-.3-1-.6-1.5-1.2 0-.7.1-1.1.4-1.6s.4-.8.5-1.6l-.3-5.8.7-.7c.4-.4.5-.7.6-1.4v-3l.4-1.1.2-.5-.5-.9c-2.6-.7-5-1.1-7.4-1.2-.2 0-.5 2.6-1 4-1.4.5-2.5 1-3.6 1v-1.3c-1-4.6 1.4-6 4.9-6.4 3-.4 6.1-.6 9.5-.9l1 7 .2 4.1-.1 1.8c.4 7.5 1 14.6 1.5 22.2l1.8 22.2v15c9.7-.7 14.1-6.6 17.9-13.2 1.6-3 3.2-3.9 6.2-1.5 2.2 1.8 4.8 3 7 4.6 3.4 2.3 5.3.7 5.7-2.5.3-2.9-.3-6-.5-8.9-.2-1.6-.3-2.8 1.7-1.2 1.7 8.7 3.9 17.3 5 26a165 165 0 0 1 1.9 26.2c-.2 9.3-2 18.6-3.1 28.7l-8.4 27.7c-.4 1.2-1.3 2.3-2 3.3L610 522h-1.6a43 43 0 0 0-28.7 6.6l-2.4-11.9-6.3 2.5c-5 1.3-10.3 2.1-15 4.2-1.8.8-2.9 4.4-3.4 7a107.8 107.8 0 0 1-15.2 36l-.7 1.4c-3.5 4.6-6.6 9-9.6 13.2-5.2 3.9-10.3 7.8-16.1 11.9l-4.2 2.3-1.4.7c-2.5 2-4.6 4-5.8 5.2 1 3.6 1.6 6.2 2.5 8.7.4 1.1 1 2.6 2 3 7 3.9 9.1 9.8 8 17.4-.3 1.8-.2 3.6-.5 5.5-5.8 6.5-11.3 12.7-17.4 19-1 0-1.5 0-1.7-.4 2.4-3.2 4.4-6.3 6.9-9 4.8-5 5.5-11 5.1-17.6-2.7 2.2-4.6 5.2-7.2 7.2-7 5.5-8.3 12.7-7.1 21.2a75 75 0 0 1-4.4 5.1l-2.8-10.6c1.4-3.7 2.8-7 4.4-10.6l5.7-9h-.5L462 641.2c-16 5.3-32.3 9.6-49.4 11a1001 1001 0 0 0-54.3 6c-12 1.6-24 4.3-36 6.6-1.4.3-3.4 1-3.8 2-2.7 6.6-7 13-5.3 20.5A1283 1283 0 0 0 325 737a25 25 0 0 0 6.3 12.2 93.2 93.2 0 0 0 36.5 21.9c8 2 16.2 4.1 24.8.9a63 63 0 0 0 28.4-22c5.5-7.4 9.8-15.3 7.2-25.3-1.1-4.7 4.1-10 9.7-10.4l2.3 7 1.4.3 43.3 1c2.4 0 4.8-.8 6.5-1.2-.1-8.6-6-7.6-11.3-7.8-10.6-.2-21.2-.6-32.2-1-1.8-.2-3.4 0-5.3.1-1.8.1-3.2.2-4.4 0 5.4-3.6 11.1-4 17.2-3.5 6.1.6 12.2.8 18.4 1.1-9.5-1.8-19.2-.5-28.5-4.6.5-1 .6-1.4.8-1.5a14 14 0 0 1 2.2-1.1c18-7 37-5.8 55.6-4.4 8.1.6 14.8 1.5 19.4-7.1 2-3.7 4-7 3.9-11.4-.3-9.4-.7-19 0-28.4.7-8.2 2.8-16.4 4.4-25.1l5.4 2.2 5.3 13c-1.3-12.2-5.4-24.4 1.4-36.8l1.4-1.2h.3a42.5 42.5 0 0 1 26-11.5c4.5 1 8.7 1.6 13 2.3l-.1.5c-.9 15.8 2 30.5 8.3 44.5.7 1.8 2.4 3.4 4.1 4.5 2.8 1.8 6 3 8.9 4.6 2.4 1.4 4 1.3 5.5-1.6a71 71 0 0 1 6.4-10.6 5.8 5.8 0 0 1 4.6-2c7 1.2 13.7 2.8 20.5 4.2l.2-2.8c2.8 7 6.8 13.7 8 20.9 4.3 23.2 7.6 46.5 11.2 69.8.3 2.1 0 4.3.1 7.3l1 4v1c.6 5.4 1.3 10.2 2 15M204 647s.2-.1 0 .6l2.4 2.1-.3.7c-1.3 4.2-3 1.8-4.3.1-3-4.2-5.2-9-8.6-12.8-3-3.5-7.2-6-11.8-9.7-2.7 16.8-4.8 31.9-7.7 46.8a180 180 0 0 0-4.7 44.4c.1 1.5.4 3.5 1.4 4.4 2 1.7 12.3-1.3 13.6-3.7 3-5.6 5.7-11.3 9-16.7 5.7-9.5 10.8-19.3 19.6-26.7 5-4.2 9.7-10.1 12-16.2 3.5-9.3-5-24-14.8-28.7-.2-.3-.5-.5-.8-1.3l-1.5-3-.8.7 2.5 3.4c.2.3.5.5.9 1.3 3.4 5.4 7.5 10.6 5.9 17.6-.4 1.6-1.2 3-1.8 4.5l-5.8-3.3 2-.7.1-.3-.4-1.3c-.7-2-1.8-4-2-6.2-.3-8.1-6.7-13-10.2-19.4-.4-.7-2.5-1-3.4-.7-.7.3-1.4 2.3-1 3 2.7 6.4 5.8 12.6 8.7 19.5.6.5 1.3 1 1.8 1.6m277.1 162-13.2 1c-29.1 0-58.2.3-87.4 0-29-.3-58-1.1-87-1.7.3 1.3.7 1.7 1.2 1.7 14.9.7 29.8 2 44.7 2 41.9 0 83.8-.6 125.7-1h17.8c8.3-.3 16.6-.4 24.8-.9 5-.3 9.8-1.2 15.5-1.9l27.8-3-.2-1.5c-9.6 1.1-19.2 2.2-29.7 3.2-13 .8-26 1.5-40 2.1m-219-95.8-1-1-10.9-1.7-4.8.2c-1.2 0-2.3-.1-3.6-.5l-1.5.3c-.4 0-.9 0-1.5-.3l-1.5.3c-.4 0-.9 0-1.5-.3l-1.5.3c-.4 0-.9 0-1.5-.3l-1.4.3c-.5 0-1 0-2.1-.4h-17.9c2 7.6 3.4 8.9 9.9 8.9h13l26.8-1c3.4-.1 3.5-.4 1.6-4.2 0 0-.5.1-.5-.1zm323-264 .2-.4-.1-.4-11.8-3.4c-.5 1.3-1.4 2.6-1.3 3.7l2.5 22.5 11.6-18.2c-.1-.3-.8-1.7-1.2-3.7m-43.5 370-1.6.6c-8.8 1-17.5 2.4-26.2 3a1816 1816 0 0 1-157.5 2.1c-25.5-.5-51-1.1-76.3-2-19.3-.8-38.5-2.1-58.3-3.7l-75.3-8q11.7 3.3 23.7 4.8c11.1 1.5 22.2 2.6 33.4 3.7 5.8.6 11.7.8 18.4 1.5 1.3.3 2.5.7 3.8.8 14.6 1 29 2.2 43.6 3 16.9.8 33.8 1.4 50.7 2 15.5.4 30.9 1 46.3 1a5101 5101 0 0 0 132.5-3 1021 1021 0 0 0 35.7-2c3.9-.3 7.7-1.5 12.4-2.1l15.3-2.5-.4-1.9a440 440 0 0 1-16.5 2.5zM118 627.4c1.6-7.4-2.4-12.6-7-17.7-.5-.7-2.4-1.3-2.8-1-3.7 3.7-9 7-10.7 11.5a21.2 21.2 0 0 0 6.7 25.3c.7.6 2.6 1 2.9.6 4.4-5.4 12-9 10.9-18.7M238.7 807c2.7 0 5.4 0 8 .2l40.7 2.8c1.4.1 2.9-.3 4.3-.4-48-4.7-95.9-6-143.4-13a452 452 0 0 0 41 6.8c9.5 1 19.2 1 28.8 1.7zm307.4-20.6c-.8-7.5-1.5-15-2.6-22.4-.3-1.4-2.6-2.4-4.8-4.3v33.5l7.4 1zM157.6 769l-1.9 18.7 8-2.2v-31.7c-1.8 1.8-3.3 2.6-3.7 3.7-1 3.5-1.6 7-2.4 11.5M486 950.5c-6 3.2-1.1 7.3-1.7 11.3 10.8-4.1 16.6-10.9 14.5-16.8zm-371-561v-8h-.5v29.7l1.8-.1-1.3-21.7M43.8 872.3l-5.8 8.6 1.5 1 9.4-13-1.5-1.1zm37 6.5-2.7-1.9-1.1 1.2 4.8 7.4 1.3-.7-2.2-6z"/>
  <path fill="#424952" d="M437.5 714c-5.3.7-10.5 6-9.4 10.7 2.6 10-1.7 18-7.2 25.3a63 63 0 0 1-28.2 22c-8.6 3.3-16.9 1.3-24.8-.8a93.2 93.2 0 0 1-36.5-21.9 25 25 0 0 1-6.3-12.2 1283 1283 0 0 1-12-49.8c-1.5-7.5 2.7-13.9 5.4-20.4.4-1 2.4-1.8 3.8-2 12-2.4 24-5.1 36-6.8 18-2.4 36.2-4.4 54.3-5.9a214 214 0 0 0 49.4-11l30.6-10.2h.4c-1.8 3-3.5 5.8-5.8 8.8-8.8 4.4-10.4 9.8-9 16.9l4.8-5.7 2.8 10.2a61 61 0 0 0 4.5-5.2c.9-.8 1.4-1 2-1.4l2 .5c0 2-.6 3.5-1.2 5l1 .8c2.2-2 4.7-3.6 6.3-6 4.3-6.1 10.5-11.1 11.5-19.3 0-1.8-.1-3.6.2-5.4 1.1-7.6-1-13.5-8-17.3-1-.5-1.6-2-2-3.1-.9-2.5-1.5-5-2.5-8.7 1.2-1.2 3.3-3.2 5.9-4.8.2 2.5-.4 4.6-.2 6.7.1 1.6.8 3.9 2 4.4 7.1 3 14.5 5.8 21.8 8.6v.3c.3.4.6.5 1 .7 0 0-.1 0 0 .2l.8.8 6 10.5c-1.3-.2-2.7-.7-5.4-1.8-1.6 8.7-3.7 16.9-4.3 25.1-.8 9.4-.4 19-.1 28.4 0 4.5-1.9 7.7-3.9 11.4-4.6 8.6-11.3 7.7-19.4 7-18.7-1.3-37.5-2.5-55.6 4.5l-2.2 1-.8 1.6c9.3 4 19 2.8 28.5 4.6-6.2-.3-12.3-.5-18.4-1a24 24 0 0 0-17.3 3.6l-.5 1m-38.3-45.7c-2.7-.7-5.7-2.5-8-1.8-8 2.1-15.7 5.1-23.5 7.8-3 1-4 3.1-3.7 6.2v5.5a20.9 20.9 0 0 0 24.8 21c1.4-.2 3-1.3 4.1-2.4 5.6-5.4 11.1-11 16.6-16.5 6.4-6.6 5-13.4-3.1-16.8z"/>
  <path fill="#E8DCD2" d="m543.7 212 .3 1c.2.7.4.9.7 1 .7 1.2 1.4 2.3 2.2 4 .3.7.4.9.6 1l.5 1 1.2 4 7 20.7.9 1.7c.4 1.6.7 3 .5 4.4h-1.8c-2.2-6-4-11.7-6-17.8a47 47 0 0 0-3.3-6.3l-4.5-8a78.1 78.1 0 0 0-19-30.1c-8.1-7-10.5-19-21.6-22.8-.6-.2-1-.9-1.5-1.3-7-5.4-14-11-21.2-16.4-2-1.5-4.6-2.6-6.9-3.9l-.9 1.3c1.1 1.2 2.1 2.6 3.4 3.7 9.9 7.7 20 15.2 29.6 23.3 3.3 2.8 5.3 7 8 11 .2 2.8.5 5.3.9 8.2l-9.6-10.9v-.4c-4.8-6.8-9.5-13-18.2-14.6l-.4-.2.3.8 3.7 6c0 1.8 0 3.2-.2 4.7-3.9 2.3-8.3.5-9.4-3.5-.7-2.6-1.1-5.3-1.8-8.6l-3.4 5.2-8.1-14.5-8.5 12.8-1-.7-.5-8.8c-8.4 1-10.1-6.8-14.7-11.4l-4 9-2.8-4a12.2 12.2 0 0 1-.4-14.5c1.2-1.9 6.8-1 10.4-1.3.3 0 .6 0 1 .2 6.9 2.1 13.4.4 21.4-1.6a6407 6407 0 0 0-30.8-13.7c-3.5-1.4-6.7-3-10-3.8-11.8-2.7-23.5-5.8-35.4-7.6-11-1.7-22.3-2-34-2.9l-4 .9-8.8-.1-13 1c-8.4 1-16.5 2-25 3.2a287.8 287.8 0 0 0-60.5 19.5 43 43 0 0 1 5.2-6.1l12-4.8c.8-.2 1.2-.5 2-1l13-5 10-3c1.2-.3 2-.6 2.7-1l.5.1 27.9-5.1 2.7-.2c.6 0 .9-.2 1.5-.5 2.6-.3 4.9-.5 7.5-.6 7.5.4 13-2.8 17.9-7.6a9.7 9.7 0 0 0-4.7-1c-5.6.2-11.3.7-16.9.8-1.6 0-5.2 2-4.3-2.7 11.4-1 22.8-3.6 34.1-2.8a207 207 0 0 1 40.5 7.1 688 688 0 0 1 50.3 16.6c7 2.6 13.3 6.6 19 12 6 6 13.7 10 20.7 14.8.7.5 1.5.8 2.2 1.2 5.8 4.3 11.9 8.3 17.4 12.9 3.4 2.8 6 6.4 8.8 9.8 4.7 5.7 9.7 11.2 13.7 17.4 3.9 6.1 6.7 13 10 19.4l4.2 8.2c.3.9.5 1 .7 1.2"/>
  <path fill="#61503E" d="M100.4 366c.4 21.1.4 42.2.4 63.2H98v-43.4l-2-.6a33.7 33.7 0 0 0-13.6 12.3 70 70 0 0 0-7.7 27.5c-.4 4.7-3.8 9-5.8 13.6l-1.8.4-4.3-10.7c0-6.5.3-12.7 1-18.9 1 1 1.4 2 2 3.6a73 73 0 0 0 9.6-30.1c-1.8 1.4-3 3-4.2 4.8l-5 6.4c2.7-14.6 18.9-27.4 34.2-28z"/>
  <path fill="#574635" d="m79.7 604.2 18.4-3.7c-3 8.3-6 15-12.6 19.5a67.1 67.1 0 0 0-24.6 33.5c-4.5 11.6-9.7 23-15 35.4-.5-3.6-.8-7-1.5-10.6.4-12.4 1-24.6 6.3-35.8.5 1 .6 1.8.8 2.7l1.3.4c5.4-9 10.8-18 16-27.1.5-.9-.7-2.6-1-4 3.8-3.4 7.7-6.9 12-10.3z"/>
  <path fill="#424952" d="m642.7 635.6-.2 3.2c-6.8-1.4-13.6-3-20.5-4.2-1.4-.2-3.8.8-4.6 2-2.5 3.3-4.6 7-6.4 10.6-1.4 2.9-3 3-5.5 1.6-3-1.6-6.1-2.8-8.9-4.6a9.9 9.9 0 0 1-4.1-4.5 90.7 90.7 0 0 1-8-44.5 8 8 0 0 1 3.6 3l6 21.5c2 7.3 1.9 7.3 9.7 7.3 2.8 0 5.8.5 8.5-.1 6.6-1.7 15.7 1.7 18.5-8.5l1-.2 3.2 2.8c3.3 4.3 7.3 8.3 7.7 14.6"/>
  <path fill="#7B513D" d="M125.3 255.3c2.3-6.8 4.2-13.8 6.8-20.4 6.2-15.2 12.3-30.5 19.3-45.4 2.9-6.2 7.5-11.8 11.9-17.3 3.6-4.6 8-8.7 12.4-12.9a9.7 9.7 0 0 1-1.7 5c-1.7 2.3-4 4.4-6 6.5l1.3 1c4.8-5 11.7-8.4 13.1-16.7 1.8-1.8 3.2-3.5 4.6-5.2h.3c1.7-.7 3.2-1.4 4.5-2.3 2.9-2 5.6-4.2 8.5-6 .6-.4 2 .3 3 .5-.2.8-.2 1.9-.7 2.5-2.7 3.3-5.6 6.4-8.4 9.6l-4 4.8.8.6c3-2.2 6-4.5 9.1-6.5.5.5.8.8.8 1.4l-8 8.5-.2-.2h-1.3c-4.9 3.6-10.2 6.5-14 10.7-11.7 13.2-23.5 26.3-31.1 42.6-4.1 8.9-9.1 17.3-13.7 25.9zm39.3-79.8s-.1 0 0 0"/>
  <path fill="#A07A66" d="m199.9 152.9-8.9 6.7-.8-.6 4-4.8c2.8-3.2 5.7-6.3 8.4-9.6.5-.6.5-1.7.8-2.5-1-.2-2.5-1-3.1-.5-3 1.8-5.6 4-8.5 6a26 26 0 0 1-4.5 2.4c7.4-9.1 17.6-15 27.6-21 9.1-5.2 18.8-9.4 29-14a3 3 0 0 1 1.2 1.4l-6.4 3.6c1.2.8 2.1 1 2.8.6 5-2.4 9.9-5.3 15-7.2 8.5-3 17.2-5.5 25.8-7.9 1-.3 2.5 1 3.5 1.5l-.9.5c.2 0 .3.2.4.1.3-.2.5-.4 1.1-.6 1.8-.1 3-.2 4.4-.5 10.6-2.3 21.1-5 31.8-7 4-.9 8.3-1.7 12.4 1.4l-5.3 3.7-7.4.7c-1 0-1.2.3-1.4.5h-2.8c-2.8-.8-5.2-1.8-7.3-1.5a204 204 0 0 0-17.2 4c-1.4.4-2.4 1.9-3.5 2.8h-.4c-1.1.2-2 .6-2.7 1-3.1.9-6.2 1.9-9.7 2.5-1.6-.5-2.9-1-3.9-.8-22.5 6-42.9 16.6-62.6 28.6-4.2 2.5-7.3 7-11 10.5z"/>
  <path fill="#49474E" d="M627 396.5c-2.1-1.2-2 0-1.8 1.6.2 3 .8 6 .5 8.9-.4 3.2-2.3 4.8-5.6 2.5-2.3-1.6-5-2.8-7.1-4.6-3-2.4-4.6-1.4-6.2 1.5-3.8 6.6-8.2 12.5-17.8 13.3 0-5 0-9.8.3-15.2 2.5-2.7 5-4.7 7-7 2.7-3.2 5.3-5.6 10.2-5.7 5.7 0 12.6.5 14.6-7.6.1-.5 1.3-.8 2-1.3l-.2.4 1 2.6 3 10.6z"/>
  <path fill="#CEAE97" d="M286 107c-1.2-.5-2.7-1.8-3.7-1.5-8.6 2.4-17.3 4.9-25.7 7.9-5.2 1.9-10 4.8-15 7.2-.8.4-1.7.2-3-.6l6.5-3.6s-.4-1-.9-1.4c7.9-3.3 15.9-7 24.2-9.7 10.3-3.2 20.7-6 31.1-8.4 7.1-1.6 14.5-2 22.2-2.8-.5 4.7 3 2.8 4.7 2.8 5.6 0 11.3-.6 16.9-.8 1.5-.1 3 .2 4.7 1-5 4.8-10.4 8-17.9 7.6 1.2-1.2 2.8-2.3 5-3.8-4.2-3-8.6-2.3-12.5-1.5-10.7 2.1-21.2 4.8-31.8 7.1-1.3.3-2.6.4-4.4.5z"/>
  <path fill="#807F89" d="M635 620.6c-1-.6-2.2-1.5-3.2-2.4-.4 0-1 0-1 .2-2.8 10.2-11.9 6.8-18.5 8.5-2.7.6-5.7.1-8.5.1-7.8 0-7.7 0-9.7-7.3-2-7-4-14-5.6-21.4a39 39 0 0 1 8.7 6.2c3.5 3.5 5.9 9.7 9.8 10.7 7.4 2 16 4.4 23.1-2.2 1.6 2.4 3.3 4.8 5 7.6z"/>
  <path fill="#C0A792" d="m125.1 255.6 7.5-13.6c4.6-8.6 9.6-17 13.7-25.9 7.6-16.3 19.4-29.4 31.1-42.6 3.8-4.2 9.1-7 14.2-10.5a5 5 0 0 0 1.4 0h.3c1.1 0 1.8 0 2.5.3a942 942 0 0 1-20.2 18.7c-3 3.2-5.8 6.2-8.4 9.3-1 1.3-1.5 3-2.2 4.7h-.4l-9 11.7-1.7 2.4s0 .2-.3.5l-21 36.5-.6 2-.2.1-.8 2.8-.2.2c-1.5 2.6-2.6 5-3.8 7.2-2 4-4.1 7.7-6.2 11.6z"/>
  <path fill="#777D8D" d="M623 382.6c-.6.8-1.8 1-2 1.6-2 8-8.8 7.5-14.5 7.6-4.9 0-7.5 2.5-10.3 5.7-2 2.3-4.4 4.3-7 6.5-.9-7-1.5-14-1.7-21.6 3.2-.8 6-1.9 8.6-1.3 8.5 2 16.4 2.5 22.8-5l1-.1 3.2 6.6z"/>
  <path fill="#A59B96" d="M589 319c1 7.2 2.3 14.3 2.5 21.4.1 3.4-1.9 6.9-3.2 10.1l.2-6.5c-4.4.3-8 .6-11.6.7-.5-.4-.8-.5-1.5-.5-1.1-.3-2-.6-2.5-1.1 3-.5 5.9-.8 8.7-1.1l.6-1.7-17-15.7c-1.1-.4-2-.5-3.3-1-2.3-4.9-.4-7 4.4-7.2 3.4 1.2 6.5 2.6 9.7 3 5 .6 6.6 3.7 7.6 7.8.9 4 2 8 3.4 13.1v-17.6l.1-1.9c.4-1.2.5-2.2.6-3.2l1.3 1.5z"/>
  <path fill="#E4D3D0" d="M566 589c13.5-4.9 26.9-6.2 39.4 2.9a326 326 0 0 1 19.4 15c-.9 1.2-2.2 2.4-2.9 2.1-7.3-3-14.9-5.5-21.5-9.6-10.8-6.5-21.6-11.5-34.5-10.4z"/>
  <path fill="#C9AFA4" d="M565.6 589c13.2-1.1 24 4 34.8 10.4 6.6 4 14.2 6.6 21.5 9.6.7.3 2-.9 3-1.7a47 47 0 0 1 5 5.4c-6.9 7-15.5 4.5-22.9 2.5-4-1-6.3-7.2-9.8-10.7-2.5-2.5-5.5-4.4-8.7-6.6l-4-3.2c-.2 0-.3 0-.4-.3-3.8-4.2-8.6-3-13.5-3.4-4.5.6-8.6 1.3-12.7 2 2.4-1.3 4.8-2.7 7.7-4"/>
  <path fill="#B8A592" d="M619.8 375.6c-.3.4-.7.4-.9.6-6.4 7.4-14.3 6.8-22.8 5-2.5-.7-5.4.4-8.5.7-1-7-1.6-14.2-1.7-21.6 4.2 9 13.6 10.3 21.7 15.1l4.5-9.6.5-.6z"/>
  <path fill="#A87B5F" d="M120.5 271.2c2.4-4 4.5-7.9 6.5-11.8 1.2-2.3 2.3-4.6 3.8-6.8-4.1 15-8.6 29.7-12.9 44.4-1 3.3-1.3 6.8-2 10.2l1.7.3a202 202 0 0 1 3-9.9c.2-.5.2-.7.6-.8.7 0 1 0 1.1.6-.7 11-.7 11-6 14.6l-1-2.3-1.2 6.6c0 1 0 1.8-.4 2.4l-4.8-2.7c1.7-8 3-16 5-23.8 1.8-7 4.2-13.9 6.6-21"/>
  <path fill="#4D3E3E" d="M658.9 875.5c-5.8 2.2-11.7 3.6-17.3 5.8a35 35 0 0 1-21 2c5-5.5 10.4-9.5 17.9-10.4 4.3-.6 8.6-1.7 9.6-7.4 3.6 3 7.2 6.3 10.8 10"/>
  <path fill="#7A6058" d="m558 250.7-1-4.7c-.3-1-.6-1.3-.8-1.6l-7-20.4a50 50 0 0 1-1.1-3.7c1.8 2 4 4 5.2 6.5 2.6 5.3 5 10.8 7 16.4 5 14.6 9.6 29.4 14 44.4-1.2-.9-1.8-2.2-2.7-3.2-1-1-2.2-1.6-3.6-2.6a55 55 0 0 1-2.8-7c-2.5-8-4.8-16-7.1-24z"/>
  <path fill="#5F5655" d="M572.6 343.3a103 103 0 0 0 4.4 1.5l11.5-.8-.5 6.8c-.3 1.2-.5 2-1.3 3-.7.3-1 .2-1.1.2l-1.1-6.7c-3.4.3-6.5.5-9.5.9-3.5.4-6 1.8-5.3 6.2-7.9-8.8-6.5-19.9-7.6-30.5 1 .2 2 .3 3 1.2-1.4 8.2 1.8 13.7 7.5 18.2"/>
  <path fill="#D7D0CD" d="m108.6 316 5.4 3c1.3.9 2.7 1.5 2.7 2.1.2 6.6.1 13.2 0 20l-.7 1.2-1 .7c0-3.7.3-7.2-.2-10.6-.2-1.5-1.7-3.6-3-4.1-4.5-1.7-9.2-2.8-13.7-4.5l7-6.6c1-.4 2-.8 3.5-1.2"/>
  <path fill="#443939" d="M571.3 519.3a56 56 0 0 1 6-2.6l2.4 12a41.2 41.2 0 0 1 28.8-6.5c.5.5.5.7.5 1-8.2 4.7-17.5 6-26.6 7.7-2.4.4-5.8.6-5.3-3.1.8-4.9-2-6.7-5.8-8.5"/>
  <path fill="#CCC3C1" d="m587 321-.2 1.8c0 .7 0 1 .2 1.2v16.3c-1.4-5.2-2.5-9-3.4-13-1-4.2-2.7-7.3-7.6-7.9-3.2-.4-6.3-1.8-9.4-3.1.2-1 .4-1.6.9-2.3l6.3-2h4.3c1.4 0 2.7 0 4.5.5z"/>
  <path fill="#685F5E" d="M163 608c-9.4-4.1-18.6-8.8-28.2-12.2-7.7-2.7-16-4-24.4-5.8 4-1 8.4-2 13.4-2.6 1.7 1.3 2.7 2.5 4 3 9 3.6 18.2 6.7 27.1 10.7 3.1 1.3 5.4 4.5 8.1 6.9"/>
  <path fill="#8A6756" d="m66 394.4 5.2-6.7c1.2-1.7 2.4-3.4 4.2-4.8A73 73 0 0 1 66 413c-.7-1.7-1-2.6-1.7-3.8.4-5 1-9.7 1.9-14.8z"/>
  <path fill="#7A6D6A" d="M610.3 522c3.1-4.3 6.5-8.7 10-13.2.7-1 1.6-2 2-3.3l8.2-27.3c-1 17-3.7 33.4-20.2 43.8"/>
  <path fill="#937F7A" d="M529 615.6c-7.2-2.4-14.6-5.1-21.8-8.2-1-.5-1.8-2.8-2-4.4-.1-2 .5-4.2.6-6.8.2-.6.5-.8 1-.7l19 16.5c1.1 1 2.2 2.2 3.2 3.6"/>
  <path fill="#7A6058" d="M67.7 614.6c.4 1.3 1.6 3 1.2 3.9l-16.1 27.1-1.3-.4-.5-3c0-.7.1-1 .4-2l.6-1.2h.3c.8-1.4 1.2-2.7 1.7-4h.3c.4-.7.5-1.4.6-2 .9-1.6 1.7-3.1 3.1-4.9a9.4 9.4 0 0 0 2-3.1h.3c2.7-3.5 5-6.9 7.3-10.3v-.1z"/>
  <path fill="#B99F97" d="M163.2 608.2c-2.9-2.6-5.2-5.8-8.3-7.1-8.9-4-18-7.1-27.1-10.7-1.3-.5-2.3-1.7-3.6-3 4-.3 8.2-.2 12.2.2-2 .4-3.8.4-5.6.4 0 .7-.2 1.4-.3 2l27.6 9c4.4 3.4 8.2 7.1 9.2 13a220 220 0 0 0-4.1-3.8"/>
  <path fill="#E8DCD2" d="M158 598.7c-9.1-2.7-18.3-5.7-27.5-8.7l.3-2h5.9c9 .1 14.8 5.8 21.3 10.7"/>
  <path fill="#937F7A" d="M111.3 348.4c-3.6 2.5-9.7 1-11.2 7.4-.4-.1-.8-.5-1.1-1.6a6.7 6.7 0 0 0-1-2.2v-.3l-1-12.1c.4-3.7.7-6.9 1.4-9.9.4 1.6.7 3 .5 4.2-1.5 9.2 5 13.6 12.4 14.5"/>
  <path fill="#C9AFA4" d="M98 329.5c-.3 3.2-.6 6.4-1.3 10-1-.6-1.8-1.5-2.5-2.5l1.7-13.5c.7-4.8 3.7-6.7 8.7-6.4-1.8 2.2-4.1 4.3-6.5 7.2v5.2z"/>
  <path fill="#7A6058" d="M575.6 295.1c.5 2.4.9 4.8 1 7.6-1.4-.2-2.3-.8-3.6-1.5-.8-.2-1.3-.2-2-.6-1-5-2-9.8-2.4-14.5 1.7 2.8 3 5.5 4.6 8.1.4.6 1.6.6 2.4 1z"/>
  <path fill="#B99F97" d="M525.8 611.6c-6.2-5-12.4-10.3-18.7-16 1-1.1 2.1-1.8 3.5-2.6-.4 4 2.8 5.7 5 8 3.4 3.5 6.8 6.9 10.2 10.6"/>
  <path fill="#7A6D6A" d="M557.5 593c4.5-.7 8.6-1.4 13.1-1.7.4.6.4.7.4 1a44.4 44.4 0 0 0-25.7 11.7 200 200 0 0 1 12.2-11"/>
  <path fill="#B8A592" d="M585.5 354.4c.3-.4.5-.3 1-.3.9.7 1.4 1.9 2 2 8.7.4 16.4 3.8 23.9 8.8 0 .4 0 .6-.6.9-8.7-3.6-16.3-9-26-7.6z"/>
  <path fill="#8A6756" d="M182.1 155.2c-1 8.2-8 11.5-12.8 16.7l-1.2-1c2-2.2 4.2-4.3 6-6.6 1-1.4 1.4-3.2 2-5.1.9-1.6 2-2.8 3.7-4z"/>
  <path fill="#B7B5B7" d="m573.3 301.3 3.2 1.8c.7 2.7 1 5.4 1.6 8.4-1.3.5-2.6.5-4.4 0-.5-3.6-.4-7-.4-10.2"/>
  <path fill="#5F5655" d="M527.4 581c2.7-4.3 5.8-8.6 9.2-12.8-1 5.4-3.5 10-9.2 12.7z"/>
  <path fill="#C8A476" d="M94.1 337.4c.8.6 1.5 1.5 2.6 2.5.6 3.9 1 7.6 1.3 11.8-5.5-3.2-5.9-8.3-3.9-14.3"/>
  <path fill="#4C342E" d="M117.4 534.9c0-3.3.5-6.7 1-11l3.5 2.8a53.6 53.6 0 0 1-4.5 8.2"/>
  <path fill="#937F7A" d="M575.6 294.8c-.8 0-2 0-2.4-.6l-4.7-8.3c-.5-.5-.5-.7-.3-1.1a6 6 0 0 0 .6-2.4l-.5-.3c1.1.7 2.4 1.3 3.3 2.3 1 1 1.5 2.3 2.6 3.6.3.5.4 1 .3 2 .2 1.4.6 2.3 1 3.1z"/>
  <path fill="#4D3E3E" d="M164 609.5c1 .5 2.2 1.5 3.6 2.8 0 3.5-.3 6.6-.6 10.1-1-3.9-2-8.2-3-13z"/>
  <path fill="#574635" d="M555.3 900.9c2.5-6.1 5.3-12.3 8.4-18.8a318 318 0 0 1-8.4 18.8"/>
  <path fill="#B7B5B7" d="M587.1 320.8a70 70 0 0 1-4.1-8.2c3 1 7.7.6 6.3 6.3-.7-.3-1.1-.8-1.6-1.3-.1 1-.2 2-.6 3.2"/>
  <path fill="#574635" d="M67.3 614.8c-2 3.3-4.3 6.7-7 10.2a98 98 0 0 1 7-10.2"/>
  <path fill="#A07A66" d="M182.4 155h-2.3a50 50 0 0 1 6.5-5 26 26 0 0 1-4.2 5"/>
  <path fill="#7A6058" d="M575.6 292.8a5 5 0 0 1-1.2-2.5 5 5 0 0 1 1.2 2.5"/>
  <path fill="#574635" d="M53.7 635.1a10 10 0 0 1-1.4 3.8 10 10 0 0 1 1.4-3.8m6-10c-.1.9-.6 1.8-1.4 2.8a8 8 0 0 1 1.4-2.8m-5 8c.1.5 0 1.2-.4 1.9-.2-.6 0-1.2.4-1.9"/>
  <path fill="#777D8D" d="M624 385.5a5 5 0 0 1-1-2.2 5 5 0 0 1 1 2.2"/>
  <path fill="#C8A476" d="M98 352.3c.3.2.6.7 1 1.5-.4-.1-.7-.6-1-1.5"/>
  <path fill="#574635" d="M51.7 639c.2.3 0 .5-.3.9-.1-.2 0-.5.3-.8zm512.6 243c-.1-.3 0-.6.5-1 0 .2 0 .6-.5 1"/>
  <path fill="#DDD0C8" d="M543.8 211.7c-.3.2-.5 0-.7-.5.2 0 .5.1.7.5m.9 2c-.3.2-.5 0-.7-.5.3-.1.6 0 .7.5m2.9 5.1c-.3 0-.4 0-.6-.4.3-.3.5-.2.6.4"/>
  <path fill="#7A6D6A" d="m544.8 604.1-1 .8zm64.5-81.1c-.3 0-.3-.3-.4-.8.2-.3.4-.3.9-.3 0 .4-.1.7-.5 1.1"/>
  <path fill="#937F7A" d="M530 616.7c-.3.1-.6 0-1-.5.3-.1.6 0 1 .5m1 1c-.3 0-.6 0-1-.5.3-.1.6 0 1 .5"/>
  <path fill="#A47B64" d="m142.5 460-.5-38.7c0-2.1 0-4.3.3-7.2.5-5.6-.1-10.6 1.2-15 2-6.6 2-12.8-.5-19.6v-36.8c0-11.1 0-11 10.3-15.4 7.8-3.3 15.3-7.7 23.8-2 0 .7-.1 1.2-.4 1.8l-9.2 6.9c0 .7.1 1.4.5 2.4l3 3.9c.5 0 .8 0 1.4-.2 12-4.4 24.4-4.6 36.5-6 4.4-.6 8.9-.8 13.3-1 6.3-.3 12.5-.1 18.7-.6 7-.6 14.1-2.5 21.2-2.3 9.2.3 18.4 1.8 27.5 3.3 2.6.4 4.9 2.4 7.4 4l2.5-.3c5-1.3 10-2 14.3-3.7 22-8.8 44.7-14.5 68.2-17.6 14.2-1.9 28.3-4.6 39.5-14.6 5.3-4.8 10.9-9.4 15.3-14.9 6.6-8 14.1-15.6 16.7-26.4.4-.5.6-1 .8-1.5l-1.6.4c-1-1-2.2-2.2-2-3 .8-3.2 2-6.3 3-9.4 2.4-6.5 4.9-13 7.6-19.7.8-1.6 1.3-3 1.9-4.4l-1.5-.6-2.7 5.6c-6 10-17.4 11.7-23 3.4-.5 0-.8 0-1.4.2l-4.9 2.2-1.5-1a35.2 35.2 0 0 0 7.9-22.5l.5-3-1-.4c-.6 1.2-1.1 2.4-2 3.8-1.4 1.6-2.6 3-3.6 4.5-3.3 5.2-7.1 9.5-14.3 9.6-.8-.1-1.2-.1-1.7-.6v-14.9c-.7-.4-1.4-.5-2.4-.6-10 3-16.3 10-21.9 18-.8 0-1.2 0-1.8-.4-.9-4.4-2.6-6.6-7.3-5-3.6 1.4-6 .3-5.7-4.4.1-3.4.1-7.3-1.4-10-2.1-3.8-3-7.2-1.5-11.6l.3-3.1-1.1-.3a77 77 0 0 1-1.5 4 587 587 0 0 1-17 14.8c-.4 0-.5 0-.7-.6.7-6 1.4-11.7 2.3-17.6l3.4-7-1.2-.6-2.8 4.8c-9 5.9-18.5 9.8-29 12.1-.8-.1-1.2-.1-1.7-.6 0-2.6.4-4.9-.1-6.9-.4-1.7-1.9-3.1-3-4.9-.9.3-1.4.7-2.3 1.4-1.7 3.4-3.1 6.6-5 9.9-.7 0-1.2 0-1.8-.4-2-4-1.6-7.2.6-10.9 3-4.6 5.1-9.8 7.7-15.1l1.4-4-.9-.4c-.5.8-1 1.7-1.9 2.8-7.3 6.4-14.2 12.9-21.4 18.9-2.3 1.9-5.5 2.7-8.3 3.7.4-2 .9-3.5 1.7-6.1-3.2 2.6-5.4 4.5-7.7 6v-1.9c-.8-.1-1.4 0-2.5.2l-2.4.2c-.1-.1-.3-.4-.3-.8 2.1-3.9 4.4-7.3 6.2-11 .8-1.5.4-3.5.5-5.2-1.7.4-3.7.4-5.2 1.2-2 1.1-3.5 3-5.4 4.3l-5 2.8-1-1.2c.6-1.5 1-3 1.9-4.3 2.4-4 4.7-8 7.7-11.6 5.4-6.2 11.2-12 17-17.8.5-.5 1-1.2 1.5-2.3a144 144 0 0 0 5-10.7c2-1.5 4-2.6 6-3.8l1.1 1.5-9 11.9 1 .9c1.8-1.6 3.5-3.4 5.3-4.9 8.5-6.9 16.5-15 29.2-12.1-.5 3.1-6.9 5-2.8 9.7 4.7-1.3 5-9.5 12.6-6.8l-11.5 12 1.4 1.7c5-3.2 10.4-6 15.1-9.7 7-5.3 13.4-11.5 22-14.2 5-1.4 9.7-3.2 15-4.8.8 0 1.3-.1 1.7.2-5.5 7.5-11 14.5-16.3 21.6l-1.6-.6 3-10.4-.5-.4-4.6 6.3.5-3.7-1.7-.6-8.3 22.7 1.5.7 3.2-2.3 3.7 2.3c2.7-.7 3.9-6 7.1-1.3 3.6-6.2 6.4-12.6 14-14.4l-.1.4-1.5 5.6c-.5 2-1.5 4-1.1 5.7.6 3.2 2 6.3 3.3 9.9 7.6-14.2 20.5-22.1 36.1-27.5a42 42 0 0 1-2 6L409 153.8l1.3 1.3c2-1.8 4.1-3.4 5.8-5.4 2.8-3.4 5.3-7 7.9-10.2l-3.5 23.2 1.7.2 3.3-10.2c1.7 5.2-2 11 4.3 14.5 4.4 2.4 7.9 6.7 14 3.7l-3 14.1 1.3.5c2-2.7 3.8-5.5 5.9-8.5l2 4 5.7-8.4 3.5 5.4 4.8-9 1.6.3.8 13.7 3.5-1.8 1.6 17 4-6.3c1.4 3.9-4.3 9.5 4.4 11.6-1.5 8-2.9 16.1-4.6 24.1-1.3 5.8-2 12.3-5 17.1a890 890 0 0 1-34.6 50.5c-11.5 15.6-25.5 28-46.4 29-2.4.2-5 .6-7.3 1.5-13.6 5.1-27.2 10.6-40.8 15.8-4.8 1.7-6.2 5.4-7 9.9 1 .4 1.7.9 2.5 1 2 .4 4.2.7 6.3.9l69 7.8c10 1.2 20 2.5 29.8 4-5 1.8-9.8 3-14.4 4.8a95.3 95.3 0 0 1-39.8 7.3c-2.4-.2-4.9.5-7.4.6-10.8.5-21.7 1-32.5 1.3-3.1 0-6.2-.8-9.4-1-12.2-.7-24.5-1-36.6-2.1-7-.6-14-2.2-21-3.6-5.3-1-10.5-2.4-16-3.6-.7 0-1 0-1.6-.4a550 550 0 0 0-20.6-5l-6.6-1.3c-4.2-.5-8.4-1-12.8-1.7-2.2-.5-4.2-.8-6.5-1-.8-.2-1.2-.2-1.9-.5-6.2-.8-12-1.5-18-1.7-1.6 0-3.4.8-4.9 1.7-3.6 2.2-7 4.7-11.6 7.9l20.2 7.3c1.2.3 2 .6 2.7 1.2-2.9 1.2-5.7 1.9-8.4 2.9-1.6.5-4.3 1.6-4.3 2.4.2 6-.3 12.5 1.9 17.8 3.2 8 8.3 15.4 12.9 22.9.9 1.5 2.6 2.4 4.2 3.8.6.5 1 .8 1.5 1.5l2.6 1.5c3.3 2.8 6.4 5.4 9 8-5.2-.5-10-1-15.9-1.8 3.4 4.1 4.5 8.9 10.6 8.9 16.7 0 18 1.1 23.9 16.7l.5 1.4c1.1 3.7 3.4 6.1 7 7.7 15.7 6.8 31.3 13.9 47 20.9 1.6.7 3.2 2.2 4.9 2.3 4.1.2 9.3 1.4 12.2-.6 4-2.7 5.8-8 5.4-13.7-.6-7.2-.1-14.5 0-21.8 0-3.4 1.9-3.5 4.2-2.3 3 1.5 5.7 3.5 8.7 4.9 5 2.3 10 5.2 15.4 6.3 7.8 1.4 15.8 1.4 23.7 2.1 4.3.5 8.5 1.3 13.2 2-2.5 5.7-4.8 10-6.4 14.5-.8 2.5-.8 5.6-.3 8.2.1.8 3.4.8 5.2 1.4.9.2 1.6 1 2 1.7-3.3.8-6.6 2.8-9 2-6.1-1.8-11.4-1.3-16.3 2.5-1.6 1.2-4.1 3.8-3.8 4.4 1.6 3 1.5 8.8 6.5 8.1 12.9-1.6 24.2 5.4 36.6 5.8 8.4.2 16.8 1.8 25.2 2.3 3.5.2 7.4-.4 10.6-1.9 2.9-1.4 5-4.4 7.4-6.7-3.6-3.6-22.5-10.4-30-11.5s-14.8-3.5-21.8-5.5c4.9.3 9.4.4 13.8 1.3 15.8 3 31.7 5.3 47.8 1.4 7-1.7 14.8-1.6 21.3-4.3 14.4-6 28.7-11.3 44.7-10.8 3.7 0 8-.3 11-2 12.7-7.3 21.7-17.1 20.2-33.1-.3-3.2.5-5.6 3.6-7 .4 1.8 1 3.5 1 5.2 0 9-.2 18-.7 27.8a98.4 98.4 0 0 1-7.5 29c-1.5 3-2.9 4.7-6.2 5.4-5.1 1.2-9.9 3-11 9.3-.2 1-1.8 2-3 2.6l-18.8 7.2-37.5 14.9c-2.6 1-5.6 1.4-8 3a41 41 0 0 1-30 5.3c-1-.2-2.3.8-3 1.6-3.3 3.7-5.6 8.8-9.6 11.2-7.2 4.4-15.2 8-23.3 10.7-7.8 2.6-16 3.8-24 5.5-1.7.3-3.7.9-5 .2-5-2.9-9.5-1.5-14 1.3-3.2 2-5.3 1-7.3-2-1-1.6-2.8-3.4-4.4-3.6-7-.7-11.4-5.4-16.3-9.6.4-.8.7-1.3 1.5-1.8 12-1 23.5-1.8 35-3 13.9-1.5 27.7-3.4 41.5-5 4-.4 3.8-3.2 2.4-5.2-2.3-3.4-4.7-6.7-9.6-7.8-21.1-4.6-42.6-4.2-64-4-4.5.2-9 .9-13.3 1.7a133.5 133.5 0 0 1-50 1.4c-8.4-1.5-17-2-25.5-3.2-9-1.3-18.3-2-27-4.6-13.2-4.1-26.2-9.5-39.1-14.6-2.7-1-5.6-2.7-7.1-5-2.5-3.5-5.2-5.6-9.6-6-3.5-.1-5.9-1.6-5.3-5.9.4-2.8-.5-5-4-4.7l-1-3c-.6-1-1.2-1.6-1.8-2.1-.3-.8-.7-1.6-.8-3-.4-9.8-1-19-1.7-28.1 0-.4-.7-.6-1.1-1m7.2-102.9c8.9-4.5 10.4-7.5 5.5-11.8a308 308 0 0 1-6.7 12.8c.1-.3.3-.7 1.2-1m154.8 175.1c1.7.3 3.4 1 5.2.9 6.3-.2 12.6-1 18.8-.8 11 .3 21.9 1.5 32.8 1.7 9.1.2 18.3-.7 27.4-.8 4 0 8 .8 11.9.8 1.1 0 2.3-1.9 4.3-3 1.3-.9 3.4-1.5 4-2.8.8-2.3-.3-4.1-3.2-4.4-8.9-.8-17.8-2.6-26.7-2.6a3187 3187 0 0 0-75.7 2c-4.4.2-8.8 1.8-13.2 2.7v1.7c3.2 1.5 4.9 6.3 10.8 3.7 1 0 2.2.2 3.6 1m13.6-14.4c8.2-1.6 16.5-3.1 24.8-4.9 1.4-.3 3.3-1.3 3.8-2.4 2.9-6 1.7-9.8-4-13.2-1.9-1.2-4.2-1.7-6.4-2.3a29.3 29.3 0 0 0-15.4.8c-10.3 2.6-20.8 4.1-31.2 6-1.7.4-3.7 1-5.3.4-8.4-2.9-14.3 1.5-19.9 6.8-3.2 3-1 11.2 3.4 11.8 5.5.7 11.2 1.1 16.8.7 10.8-.8 21.6-2.3 33.4-3.7m11-35.5a20 20 0 0 0 14.7 9.4c11.6 1.6 22-2.5 31.4-10.1-2.3-2.7-2.1-6.9-7.6-6.5-9.5.6-19.2.6-28.7 0-7.1-.5-8-.6-9.9 7.2M150.4 410l7.4 18.2c2.3-1.8 4.7-3 6.1-4.8 1-1.3 1.5-4 .8-5.5a159 159 0 0 0-8-15.4c-1.8-3-4-5.6-6.1-8.4l-2 .7c.5 4.8 1 9.6 1.8 15.2m139.7-229 7.2-11.8-1.6-1c-3.4 3.6-7 7-5.6 12.8m65-34.2 2.4-12.2-2-.3a252 252 0 0 0-.4 12.5"/>
  <path fill="#C7A897" d="m442 364.7-30-3.7-69-7.8-6.3-.9c-.8-.1-1.5-.6-2.5-1 .8-4.5 2.2-8.2 7-10 13.6-5.1 27.2-10.6 40.8-15.7a23 23 0 0 1 7.3-1.4c21-1 35-13.5 46.4-29a890 890 0 0 0 34.6-50.6c3-4.8 3.7-11.3 5-17 1.7-8 3-16.2 4.6-24.2-8.7-2.1-3-7.7-4.4-11.6l-4 6.2-1.6-16.9-3.5 1.8-.8-13.7-1.6-.4-4.8 9.1-3.5-5.4-5.7 8.4-2-4-5.9 8.5-1.3-.5 3-14c-6.1 3-9.6-1.4-14-3.8-6.3-3.5-2.6-9.3-4.3-14.5l-3.3 10.2-1.7-.2c1.1-7.6 2.3-15.2 3.3-23.4-.7-.8-1.2-1-1.7-1.2l1.7-5.9c-15.6 5.4-28.5 13.3-36.1 27.5-1.3-3.6-2.7-6.7-3.3-9.9-.4-1.7.6-3.8 1.1-5.7.4-1.7 1-3.5 1.7-5.7l.3-1.3h-.3l-.2 1c-7.5 1.8-10.3 8.2-13.9 14.4-3.2-4.6-4.4.6-7.1 1.3l-3.7-2.3-3.2 2.3-1.5-.7 8.3-22.7 1.7.6-.5 3.7 4.6-6.3.6.4-3.1 10.4 1.6.6 16.6-21.8a52 52 0 0 1 9.1-3c3.1.5 5.8.9 8.3 1.5l-13 7.5 3.3 5 12-4c.7-.4 1.6-1.6 1.8-2.5.3-1.8.1-3.6.5-5.4a34 34 0 0 1 6.6 2.4c2.6 1.4 5.3 2.5 8.3 3.6 4.9 1 9.3 2 13.8 2.7.8.1 1.9-1 2.8-1.6l25.7 11.3c-8 2-14.5 3.7-21.4 1.6l-1-.2c-3.6.4-9.2-.6-10.4 1.3-2.7 4.2-3.3 9.8.4 14.5l2.9 4 3.9-9c4.6 4.6 6.3 12.3 14.7 11.4l.4 8.8 1.1.7 8.5-12.8 8.1 14.5 3.4-5.2c.7 3.3 1.1 6 1.8 8.6 1 4 5.5 5.8 9.7 3.8 3.2 7 5.5 14 8.5 20.7 1.3 3 4.3 5.1 5.7 8 6.8 13.4 14 26.7 17.4 41.6 1.4 6.4 4.8 12.4 7.4 19l1.5 5.6c1.6 5.1 3.2 10 5 15l2.8 7.1c.3 1.5.8 2.6 1 3.7 1.9 10 3.8 20 5.3 29.9-2-3.3-3.6-6.5-5.7-10.3-3.6 1.8-7.3 3.6-10.8 5.6-.7.4-1.4 2-1.1 2.8 1.1 4.3 2.3 8.2 7.1 10.6 4.2 2 9.7 3.1 11 9a5 5 0 0 1 2-.5c.7 1.2 1.4 2 2 3.3 0 6.8 0 13.2-.3 19.7-.7.6-1.4 1.2-1.4 1.7v21.6c0 .8 1.2 1.7 2 2.5.3 0 .8.1.7.4 0 .7 0 1.2-.2 2l2 20c.2 2.9.5 5.8.6 9.4a204 204 0 0 0 .5 13.8c-3.2 1.6-4 4-3.7 7.2 1.5 16-7.5 25.8-20.1 33a20.8 20.8 0 0 1-11.1 2c-16-.4-30.3 5-44.7 10.9-6.5 2.7-14.2 2.6-21.3 4.3-16.1 3.9-32 1.6-47.8-1.4-4.4-.9-9-1-14.1-1.3l-4.7.3c-.8-.5-1.5-1.3-2.4-1.5-1.8-.6-5-.6-5.2-1.4-.5-2.6-.5-5.7.3-8.2 1.6-4.5 3.9-8.8 6.4-14.5-4.7-.7-9-1.5-13.2-2-7.9-.7-16-.7-23.7-2.1-5.3-1-10.3-4-15.4-6.3-3-1.4-5.7-3.4-8.7-4.9-2.3-1.2-4.3-1-4.3 2.3 0 7.3-.5 14.6 0 21.8.5 5.7-1.2 11-5.3 13.7-2.9 2-8.1.8-12.2.6-1.7-.1-3.3-1.6-5-2.3l-46.9-20.9c-3.6-1.6-5.9-4-7-7.7l-.5-1.4c-6-15.6-7.2-16.6-23.9-16.7-6 0-7.2-4.8-10.6-8.9l16.3 2c2.2.2 3.7.5 5.3 1 .9.4 1.5.4 2.6.5 6.8.3 13.2 1.2 19.5.8 6.2-.3 12.3-1.7 18.7-2.6.6 0 .9-.2 1.4-.6.7-.2 1.1-.2 1.8 0 9.1-1 18-1.8 26.7-3.4a63.8 63.8 0 0 0 32-12.9c10-8.9 21.8-10.2 34.2-7.1 10.4 2.6 20.7 5.7 31 8.7 6.4 1.7 12.7 3.6 19.3 5.6l23 10.4c1 .7 1.9 1.3 2.8 1.5 10.7 3 21.5 2 32.4.7a33 33 0 0 0 18.5-9.7c1-1 1.3-2.7 2.3-5-4.2 1.6-7 2.6-9.8 3.3 2.6-4.7 5-9 7.8-13.3l.8-1.2c.2-.2.3-.5.5-.5.7 0 1-.2 1.8-.3a75.7 75.7 0 0 0 33.3-23c5-6.4 5.5-11.7 1.2-17.7a10 10 0 0 0-5.3-3.3c-5.2-1.5-11.2 0-16.1-4.1-8.7-5.6-17.5-8.9-28-5.7h-3l-1.5.6c-9.6 1.5-18.7 3-28.2 4.3-1.6.4-2.9 1-4.4 1.4l-1.4.1M497 206.1l-8-17.9c-.4.8-.8 1.2-.9 1.6-1.7 11.6-3.4 23.2-5.3 34.8-1.1 7.5-1.2 7.6 6.6 10A43 43 0 0 0 497 206m5 31.7-1.2-19.2A37.3 37.3 0 0 0 495 249c2.7-4.2 4.8-7.3 7-11.2M358.9 450.5l6 1.5c-4.2-7-1.4-16.2-11.4-18.8l-1.6 8c-1.3 7.3-1.3 7.3 7 9.3M421.5 125l-16.9 6.4c4.3.7 8.5 1.3 11.7-.2 7.2-3.4 9.3-3.8 14.8.5.6.5 1.4.6 2.2 1 1.6-3.7.6-5.7-3.2-6.2z"/>
  <path fill="#6C473A" d="M148.8 497.6c3.6-.9 4.5 1.4 4.1 4.2-.6 4.3 1.8 5.8 5.3 6 4.4.3 7.1 2.4 9.6 6 1.5 2.2 4.4 3.9 7 5 13 5 26 10.4 39.3 14.5 8.6 2.6 17.9 3.3 26.9 4.6 8.5 1.3 17.1 1.7 25.6 3.2a135 135 0 0 0 49.9-1.4c4.4-.8 8.8-1.5 13.3-1.6 21.4-.3 42.9-.7 64 4 4.9 1 7.3 4.3 9.6 7.7 1.4 2 1.6 4.8-2.4 5.3-13.8 1.5-27.6 3.4-41.4 4.9-11.6 1.2-23.1 2-35.5 3-2.3.3-3.7.6-5.2 1l.2.9 3.8.2c5 3.9 9.5 8.6 16.4 9.3 1.6.2 3.4 2 4.4 3.5 2 3.1 4.1 4 7.3 2 4.5-2.7 9-4 14-1.2 1.3.7 3.3.1 5-.2 8-1.7 16.2-2.9 24-5.5 8-2.7 16-6.3 23.3-10.7 4-2.4 6.3-7.5 9.5-11.2.8-.8 2.2-1.8 3-1.6A41 41 0 0 0 460 544c2.3-1.5 5.3-2 7.9-3l37.5-14.8 18.8-7.2c1.2-.5 2.8-1.6 3-2.6 1.1-6.3 5.9-8.1 11-9.3 3.3-.7 4.7-2.5 6.2-5.5 4.3-9 6-18.5 7.5-28.5.5 2.9 1.5 6.1.9 9-2.8 13-3.3 26.8-12 38-1 1.3-1.2 3.4-1.4 5.2-.4 2.9-1 5.2-4.7 4.7-.8-.1-2.2.7-2.4 1.3-1.9 7.6-8.2 8.6-14.3 9.5-5.7 1-11.5 1.5-18 2.2l-2.1.2-.2-.4a19 19 0 0 0-2.4-2.8l-.2 3c0 1.2-.2 2.6 0 4 .1 3-1.4 3.9-4.3 4a37 37 0 0 0-24.4 8.8c-.5.5-1.2 1-1.7 1-11.4.9-18.8 10.6-29.4 13-1.1.2-2.4.8-3 1.7-4 6.9-10.7 6.3-16.7 5.1-5.3-1-8.8.9-12.9 3.2-3.4 2-7.3 3.5-11 4.6-6.2 1.8-12.4 4-18.7 4.5-9.8.6-19.9.5-29.7-.6-8.8-1-17.5-3.5-26.2-5.5-1.4-.3-3.1-1-3.7-2-3-5-6.8-8-12-6.7-6.1 1.6-10.5-.1-14.8-4.1-1.3-1.3-3.6-1.4-5.5-2-1.2-.5-3.1-.9-3.3-1.7-1.4-4.7-5.2-4.1-8.1-3.2a12.5 12.5 0 0 1-13.5-4.2c-5-6-9.8-3-14.9-2.1-1.4.3-2.6 1.3-4 1.8-2.5 1-4.2.6-4.4-2.6 0-1.4-1-3.8-1.8-3.9-4.6-.7-5.6-3.4-5.1-7.4 0-.8-.3-1.6-.6-3.4-3.5 1.7-6.6 3.4-9.8 4.8-5.2 2.2-7 1.4-8.6-4a2 2 0 0 0-2.1-.3c-1 .2-2 .4-3.5.5-.5-.1-.8-.4-.8-.4l3-4.8-.3-1.3-5.8 1.9c-2 .6-4.2 1.2-6.2 1.2a8 8 0 0 0-.3-2.5l-1.4 2.2c-.3 0-.7.2-1.4 0 0-1.6.2-2.8.4-4l-1.7-1-4.8 6-1.8-6.3c-4.8-.9-13 3.7-12.7-8l-7.4 5.9c-1.4-5-2.5-9.7-4.1-14.2-.7-1.9-2.6-3.2-3.8-5-.9-1.2-2-2.5-2.2-3.8-.6-4.8-1-9.6-1.3-14.7z"/>
  <path fill="#493B2B" d="m208 651.4 6.2 3.4c.6-1.5 1.4-3 1.8-4.5 1.6-7-2.5-12.2-6-18v-.3c9.7 4.4 18 19 14.6 28.3-2.3 6.1-7 12-12 16.2-8.8 7.4-14 17.2-19.6 26.7-3.3 5.4-6 11.1-9 16.7-1.3 2.4-11.6 5.4-13.6 3.7-1-.9-1.3-3-1.4-4.4a180 180 0 0 1 4.7-44.4c2.9-15 5-30 7.7-46.8 4.6 3.7 8.8 6.2 11.8 9.7 3.4 3.9 5.7 8.6 8.6 12.8 1.2 1.7 3 4 4.7-.3.7.2 1.1.7 1.5 1.2"/>
  <path fill="#825446" d="M222.2 819.9c19.2 1 38.4 2.3 57.7 3a4875 4875 0 0 0 137.1 3 1816 1816 0 0 0 96.7-3c8.7-.6 17.4-2 26.8-3 1-.2 1.3-.4 1.5-.7 1 0 2.1 0 3.6.2.4.7.4 1.1.4 1.5-3.9.7-7.7 1.9-11.6 2.1a1021 1021 0 0 1-35.7 2 5101 5101 0 0 1-132.5 3c-15.4 0-30.8-.5-46.3-1-16.9-.5-33.8-1-50.7-2-14.5-.7-29-1.9-43.6-2.9-1.3 0-2.5-.5-4-1.2 0-.6.3-.8.6-1"/>
  <path fill="#3B4552" d="M118 627.9c1 9.2-6.5 12.8-11 18.2-.2.4-2.1 0-2.8-.6a21.2 21.2 0 0 1-6.7-25.3c1.8-4.6 7-7.8 10.7-11.5.4-.3 2.3.3 2.9 1 4.5 5 8.5 10.3 6.9 18.2"/>
  <path fill="#E2C49E" d="M437.8 714.3c-.2-.5 0-.6 0-1 1.5-.4 2.9-.5 5.1-.5h5.2l32 .8c5.3.2 11-.8 11.2 7.8-1.7.4-4.1 1.2-6.5 1.2l-43.3-1c-.5 0-1-.2-1.4-.3z"/>
  <path fill="#84594C" d="M482 811h-17c-41.8.4-83.7 1-125.6 1-15 0-29.8-1.3-44.7-2-.5 0-.9-.4-1.2-1.7 29 .6 58 1.4 87 1.7 29.2.3 58.3 0 88.4 0 5 0 9 0 13.1.2v.7z"/>
  <path fill="#8A6756" d="m114 365 2.1 1.3c6.3 1.2 12.1 2 18 2.5.5.1 1.3-1.2 2-1.8l3 5.8c.4-.8.8-1.7 1.6-2.3 1 3.3 1.6 6.4 2.3 9.5a28 28 0 0 1 .5 19c-1.3 4.5-.7 9.5-1.1 14.6-.9-4.2-1.7-8.7-2-13.3-.4-3.4-1.6-4.6-4.2-3.8l-3.7-21c-.9-5.2-4-6.9-9-5.9-2.3.5-4.6.6-7.5 1.1-1.1-1.7-1.5-3.7-2-5.8z"/>
  <path fill="#D6D8DC" d="M105.2 388c.2-1 .5-2.1 1.2-3.7l5.7-5.3c0 19-.1 38-.6 57.4-2.2-2-4-4.3-5.9-6.6V428c0-5.1-.4-9.7-.8-14.2V412c.2-6.8.1-13 0-19.1 0-.4 0-.9.3-1.8.2-1.3.1-2.2 0-3z"/>
  <path fill="#B7B5B7" d="M98.4 329.7c-.3-1.7-.4-3.2-.4-5.1 4.6.9 9.3 2 13.7 3.7 1.4.5 3 2.6 3.1 4.1.5 3.4.2 6.9.2 10.6l1-.7c.2-.3.3-.6.8-.7a32 32 0 0 1-.8 5.4h-1.8c-.9.2-1.1.5-1.2.8l-1.4.5c-7.7-.8-14.2-5.2-12.7-14.4.2-1.3-.1-2.6-.5-4.2"/>
  <path fill="#57575F" d="M578.5 394.8c6.7 8.5 7.2 18.4 6.3 28.6l-1.3 14.5c-1.4-.5-2.6-1-4.1-2.2-.1-4.1 0-7.6.2-11.1h-1.3l-1.2 11.4-.5 3.4c-3.5-6-6.7-11.8-4.6-19 1 1.7 1.5 3.6 2 5.4h1.4a53 53 0 0 0 3.5-25c0-2.3-.2-4.2-.4-6"/>
  <path fill="#7B513D" d="M238.3 807c-7-.7-13.7-1.4-20.2-1.9-9.6-.6-19.3-.6-28.8-1.7a452 452 0 0 1-41-6.9c47.5 7.2 95.5 8.4 143.4 13-1.4.2-3 .6-4.3.5-13.6-.9-27.1-2-40.7-2.8-2.6-.2-5.3-.2-8.4-.2"/>
  <path fill="#C8A476" d="M546 786.8v7.5l-7.3-1v-33.6c2.2 2 4.5 3 4.8 4.3 1.1 7.4 1.8 14.9 2.6 22.8z"/>
  <path fill="#D6D8DC" d="M578.9 401.1c.4 8.6.1 17-3.5 24.8H574c-.5-2-1-3.8-1.7-5.7-.4-.6-.5-1-.4-2 0-.9-.2-1.2-.4-1.5l-.3-.9-.5-1.5s.2-.4.2-.9c-.2-9-.5-17.6-.5-26.4.4-.8.5-1.4 1-2h.7l-.1.3c2.2 5.6 4.5 10.7 6.9 15.8"/>
  <path fill="#E6EAED" d="M585.7 358.4c9.8-1.7 17.4 3.8 26 7.6-1.1 3-2.5 6-4 9.4-8.2-4.8-17.6-6.2-21.7-15.5-.3-.5-.4-.8-.3-1.5"/>
  <path fill="#262528" d="m570.1 387.2.8 26c-3.9 2.1-6 1.5-6.1-3.2-.3-11.8-.9-23.6-.8-35.3.8 7.4 1.2 14.7 1.5 22h2.7c0-7.8 0-15.6.3-23.5l5.5-1.2-3.5 11c-.3 1.6-.3 3-.4 4.2"/>
  <path fill="#CC9B57" d="m208.2 651.4-1.6-1.6c-.2 0-.2 0-.3-.4-.7-1-1.4-1.8-2.1-2.5 0 0-.2 0-.2-.3a9.5 9.5 0 0 0-1.8-1.9c-3-6.2-6-12.4-8.7-18.7-.4-.8.3-2.8 1-3 1-.5 3-.1 3.4.6 3.5 6.4 10 11.3 10.3 19.4 0 2.1 1.2 4.1 1.9 6.8v1.2z"/>
  <path fill="#685F5E" d="M111.9 442c1.7 3.1 3.8 6.1 5 9.5 1 2.7.9 5.7.8 8.2-2.6-2.2-4-6-8.2-4.2 3 4.5 3 4.5 7.7 4.8-1 1.9-1.8 3.8-2.8 6-6-3.2-10.8-6.2-9.5-13.7.5-3 .2-6 .8-9.4 2.4-.7 4.3-1 6.2-1.3z"/>
  <path fill="#D3BBA7" d="m492.5 654.3-2 1.3c-1.5-8-.3-15.2 6.8-20.7 2.6-2 4.5-5 7.2-7.2.4 6.6-.3 12.7-5.1 17.7-2.5 2.6-4.5 5.7-6.9 9z"/>
  <path fill="#D1A25E" d="M157.7 768.5c.7-4 1.3-7.5 2.3-11 .4-1 1.9-1.9 3.8-3.7v31.7l-8 2.2z"/>
  <path fill="#6A5B54" d="m116.2 347.3.8-6c-.2-7-.1-13.6-.3-20.2 0-.6-1.4-1.2-2.4-2-.3-1-.3-1.7.1-2.7 2.3.6 4.3 1.5 6.3 2.4l2.3-5.6v-1l1.7-2.7 2.3 2.6c-1 3.4-2.5 6.7-3 10.2-1.9 12.8-2.3 25.9-9.7 37.5.5-4 1.3-8 1.9-12.5"/>
  <path fill="#BF8F55" d="M263.1 714c1.5 3.6 1.4 3.9-2 4l-26.8 1h-13c-6.5 0-8-1.3-9.9-8.9 6 0 12 0 17.8.4-1.9.4-3.7.2-5.4.4-3 .3-6 .8-8.9 1.6 1.4 1 2.8 2.4 4.1 2.5 13.4.5 26.8.8 40.3 1 1.2 0 2.5-1.3 3.8-2"/>
  <path fill="#68514F" d="m584.8 449.8 1.4 3.2-11.6 18.2-2.5-22.5c-.1-1.1.8-2.4 1.7-3.2 2.6 5.5 6.9 4.6 11 4.3"/>
  <path fill="#814B38" d="M221.9 819.6c0 .5-.3.7-.8 1.2-6-.2-11.9-.4-17.7-1-11.2-1-22.3-2.2-33.4-3.7-8-1-15.9-2.6-23.7-4.7a7249 7249 0 0 1 75.6 8.2"/>
  <path fill="#979599" d="M579 400.7c-2.5-4.7-4.8-9.8-6.7-15.5 1.2-6 2-11.6 3-17.2 2-2.8 3.6-5.5 5.3-8.1.1 1.7.3 3.5.2 5.8-.5.9-.5 1.2-.5 1.5l-.4 1.7-.6 2.4-.8 23 .4 6.4z"/>
  <path fill="#3B4552" d="m486.3 950.3 12.5-5.3c2.1 6-3.7 12.7-14.5 16.8.6-4-4.3-8.1 2-11.5"/>
  <path fill="#5F5655" d="M112.4 378.8c-2 1.8-3.8 3.5-5.9 5.2 0-5.6.2-11.3.8-17.6l3.8-5.2 2.5-.1c.4 1 .4 2 .4 3.5.5 2.4.9 4.4 1.6 6.4a51 51 0 0 1-3.2 7.8M575 368c-.8 5.6-1.5 11.2-2.6 16.8-.3.1-.3.2-.3-.1-.3-.8-.7-1.2-1.1-1.7l-.3-.3L574 372c-2.7.6-3.9.8-5.5.8-.4-2.7-.5-5-.2-7.6l1.7-7.1.1-1.5a9.8 9.8 0 0 1 4-1.6c1 0 1.6.1 2 .5-.5 4.5-.8 8.5-1.1 12.5"/>
  <path fill="#F1C786" d="M262.9 714c-1 .7-2.4 2-3.6 2-13.5-.2-26.9-.5-40.3-1-1.3 0-2.7-1.4-3.6-2.5 2.6-.1 4.9.4 7.2.5 10.3.5 20.7 1 31 1.3 2.9 0 5.7-.3 8.6-.4h.7z"/>
  <path fill="#5F5655" d="M511.6 635.7c-.7 8-7 13.1-11.2 19.3-1.6 2.3-4.1 4-6.2 6l-1.1-.8 1.8-5c5.4-6.8 10.9-13 16.7-19.5"/>
  <path fill="#EFDAB3" d="M262.2 713.8c-2.9.2-5.7.5-8.6.5l-31-1.3c-2.3-.1-4.6-.6-7.3-1 2.5-.3 5.5-.8 8.5-1 1.7-.3 3.5-.1 5.7-.3 1-.2 1.4-.2 2.4 0 .6 0 1-.2 1-.2l2 .1h7c1.2 0 2.3 0 4.3.3h4.5c3.5.4 7 .8 10.6 1.9.1.5.4.8.4.8h.4z"/>
  <path fill="#57575F" d="m568 365.4.1 7.5v23.8h-2.6l-1.2-22.4c-.3-2.6-.4-5-.4-8 0-.9.1-1 .5-1.2z"/>
  <path fill="#8A6756" d="M142.3 460.3c.6 0 1.3.2 1.3.6.7 9.1 1.3 18.3 1.7 27.8a47.5 47.5 0 0 1-3-28.4"/>
  <path fill="#966B50" d="M482.5 811c-.5 0-.5-.5-.5-1v-.8c13-.8 26-1.5 39.6-1.9.6.6.7.8.7 1-4.8.6-9.7 1.5-14.6 1.8-8.2.5-16.5.6-25.2.9"/>
  <path fill="#57575F" d="M483 650.6c-1.6 2.2-3.1 4-4.9 6-1.3-7 .3-12.4 8.8-16.6-1.1 3.5-2.5 6.9-3.9 10.6"/>
  <path fill="#A59B96" d="M111.9 441.5c-2 .7-3.8 1-6 1.3-.5-4-.6-8.1-.5-12.6 2 1.9 4 4.2 6.1 6.6.3 1.5.4 2.9.4 4.7"/>
  <path fill="#CCC3C1" d="M575.3 368c0-4 .3-8 1-12.3 2 0 3.3.1 4.7.7v1.8c0 .5.1.7.2.9l-.5.6c-1.8 2.8-3.4 5.5-5.4 8.3"/>
  <path fill="#8A6756" d="M551 416a134 134 0 0 1-2-19.7c.6-.3.8-.3 1-.3.3 2.7.7 5.4.8 8.7.1 1.6.5 2.5.8 3.4a59 59 0 0 1-.7 8z"/>
  <path fill="#937F7A" d="M564 365v.9c-4.3.5-8.6.6-13.4.8a30 30 0 0 1 6-6.4l7.4 4.8z"/>
  <path fill="#8A6756" d="M548.9 394.1s-.5 0-.8-.5c-.4-6.8-.6-13.1-.6-19.5.5-.2.8-.3 1.3-.1l.8 1v15.8c-.5 1.6-.6 2.5-.7 3.3"/>
  <path fill="#443939" d="m115 389.9 1.3 21.2h-1.8v-29.6h.5z"/>
  <path fill="#33231F" d="m44 872 3.4-4.2 1.5 1.2-9.4 12.9-1.5-1 6-9z"/>
  <path fill="#5F453D" d="M522.8 808.3c-.5-.2-.6-.4-.7-1 9.5-1.4 19.1-2.5 28.7-3.6l.2 1.4c-9.3 1-18.6 2-28.2 3.2"/>
  <path fill="#D7D0CD" d="M584.9 449.5c-4.2.6-8.5 1.5-10.7-4 3.6.8 7.3 1.8 11 3v.3c0 .2 0 .3-.3.7"/>
  <path fill="#6C473A" d="M546.4 821c-.4-.5-.4-.9-.4-1.5 5.2-1.1 10.5-2 15.7-2.9l.4 1.9c-5.1.8-10.2 1.7-15.7 2.4z"/>
  <path fill="#5F5655" d="M579.7 371.3c-.2-.6 0-1.2.2-2 .7 0 1.7.3 1.7.7 1 6.6 2 13.2 1.7 20-1-6.2-2.2-12.4-3.6-18.7"/>
  <path fill="#262528" d="M182 544.1c1.7-2.4 3.3-4.4 5-6.4l1.6 1-.7 4c-3.8 5-3.9 5-5.8 1.4z"/>
  <path fill="#424952" d="M571.3 592.4c-.3-.4-.3-.5-.3-1 4.5 0 9.3-1.2 13 3-4-.4-8.2-1-12.7-2"/>
  <path fill="#262528" d="m81 879 2.1 5.8-1.3.7-4.8-7.4 1.1-1.2c1 .6 1.8 1.3 3 2.2z"/>
  <path fill="#A59B96" d="M104.6 414.2c.6 4.1 1 8.7 1.1 13.5-.5-4.2-.9-8.6-1-13.5z"/>
  <path fill="#262528" d="M577.4 436c0-3.8.5-7.6 1-11.4h1.2l-.5 10.9c-.4.4-.9.5-1.7.5"/>
  <path fill="#A59B96" d="M104.7 393.2c.2 5.8.3 12 .2 18.6-.2-5.8-.3-12-.2-18.6"/>
  <path fill="#7B513D" d="M481.6 809.1c.5 0 .4.5.4.7-4 .2-8.1.2-12.7.2q5.4-.6 12.3-.9"/>
  <path fill="#262528" d="M201 546.5c-.7 1.4-1.5 2.5-2.3 3.7l-1.5-1.2c1-1 1.9-2 3.1-3 .3 0 .6.3.7.5"/>
  <path fill="#8A6756" d="M551.7 436.7c-.3-3-.5-6.6-.5-10.4.3 3 .5 6.5.5 10.4"/>
  <path fill="#C7A897" d="M548.6 373.8h-1.2a4 4 0 0 1 .5-2.8l1 .4c0 .6.2.8.5 1l-.3 1a4 4 0 0 1-.5.4"/>
  <path fill="#262528" d="M495.4 543c-.3-.7-.2-1.5-.1-3a27 27 0 0 1 2.4 2.8c-.6.3-1.3.2-2.3.2"/>
  <path fill="#6C473A" d="M551.7 407.8a5 5 0 0 1-.9-2.7c.6.7.8 1.5 1 2.7z"/>
  <path fill="#493B2B" d="m209 631-2.3-3 .8-.7c.5 1 1 2 1.5 3.4z"/>
  <path fill="#A59B96" d="M105 388.2c.2.7.3 1.6.2 2.6a5 5 0 0 1-.2-2.6"/>
  <path fill="#BF8F55" d="M250.5 710.7q-1.5.3-3.9.3 1.5-.5 3.9-.3"/>
  <path fill="#424952" d="M447.8 712.5c-1.1.3-2.6.3-4.5.3 1.1-.2 2.7-.4 4.5-.3"/>
  <path fill="#493B2B" d="M204.1 647.2c.8.4 1.5 1.1 2.2 2.2a5.8 5.8 0 0 1-2.2-2.2"/>
  <path fill="#262528" d="M190 542.8c.1-.8.6-1.6 1-2.3.2.7.3 1.3.3 2.2-.4.2-.6.2-1.3 0z"/>
  <path fill="#6C473A" d="M548.8 394.4c.2-1.1.3-2 .7-3.1.3 1.1.4 2.5.5 4.3-.2.4-.4.4-.9.4-.3-.4-.3-.9-.3-1.6"/>
  <path fill="#8A6756" d="M146.1 492.3c.6.2 1.2.7 1.8 1.6-.6-.2-1.2-.8-1.8-1.6"/>
  <path fill="#262528" d="M498 543.5c.4-.2.9-.3 1.7-.2-.3.2-1 .3-1.7.2M205.2 546c.3-.3 1-.4 1.7-.3-.4.3-.9.3-1.7.2z"/>
  <path fill="#6C473A" d="M549.6 372c-.5.2-.7 0-.7-1a9 9 0 0 0-.3-1.6c0-.5 0-.8.2-1s.4-.3.9-.4a11 11 0 0 1-.1 4"/>
  <path fill="#493B2B" d="M202.2 645c.6.2 1.2.8 1.9 1.5a4 4 0 0 1-1.9-1.4z"/>
  <path fill="#979599" d="M581 356.4c.2-.6.3-1 .7-1.3.3.7.3 1.4 0 2.5-.2.4-.7.4-.7.4z"/>
  <path fill="#5F5655" d="m582.4 353.5-.1-.9.3.4z"/>
  <path fill="#BF8F55" d="M241.9 710.4c0 .1-.4.3-.6.2 0-.2.3-.3.6-.2m-3 0c0 .1-.4.3-.6.2 0-.2.3-.3.6-.2m23.1 3c0 .2-.3.2-.3.2l-.3-.4c.3-.3.5-.3.7.2z"/>
  <path fill="#6C473A" d="M541.7 819.3c0 .2-.2.4-.7.5 0-.2.2-.4.7-.5"/>
  <path fill="#5F5655" d="M580.5 367c-.2-.1-.2-.4.2-.9.2.2.1.5-.2 1z"/>
  <path fill="#6C473A" d="M548.8 374c-.2-.2.1-.5.3-.5.3.2.4.5.5 1.1-.2.2-.4-.1-.8-.6"/>
  <path fill="#262528" d="M570.6 414.6c.2 0 .4.4.4 1.1-.2 0-.4-.5-.4-1.1"/>
  <path fill="#57575F" d="M571.3 416.9c.4 0 .5.4.5 1-.3-.1-.5-.4-.5-1"/>
  <path fill="#BF8F55" d="M235.9 710.4c0 .1-.4.3-.6.2 0-.2.3-.3.6-.2"/>
  <path fill="#5F5655" d="M581 358.2c0-.2.5-.2.7-.2.2.3 0 .6-.3 1-.3-.1-.4-.3-.4-.8"/>
  <path fill="#424952" d="M493 631h.1q-.1 0 0 0z"/>
  <path fill="#493B2B" d="M210 632c-.3-.1-.6-.3-.9-.8l-.1-.2c.3.1.6.3.9.8z"/>
  <path fill="#937F7A" d="M113.2 347.8c-.1-.3.1-.6.7-.7 0 .3-.2.5-.7.7"/>
  <path fill="#493B2B" d="M210.2 651c-.1-.2-.1-.3 0-.8l.3.3c0 .1 0 .2-.3.4z"/>
  <path fill="#BF8F55" d="M232.9 710.4c0 .1-.4.3-.6.2 0-.2.3-.3.6-.2"/>
  <path fill="#59697D" d="m399.6 668.4 6.8 2.8c8.2 3.4 9.5 10.2 3 16.8-5.4 5.6-10.9 11-16.5 16.5a8.5 8.5 0 0 1-4.1 2.4 20.9 20.9 0 0 1-24.8-21v-5.5c-.3-3 .7-5.2 3.7-6.2 7.8-2.7 15.5-5.7 23.5-7.8 2.3-.7 5.3 1.1 8.4 2"/>
  <path fill="#846A63" d="m565.1 292.9-2.7-3.4c-1.5 1.1-3 2.3-5 3.1a1117 1117 0 0 1-4-34l-3.6 2.8c-2.3-5.4-2.1-11.8-8.3-15.3l-1 6.3-6.5-24c-3.2 13.1-7.3 25.1-6.4 38-2.5-6.3-5.9-12.3-7.3-18.7-3.5-15-10.6-28.2-17.4-41.6-1.4-2.9-4.4-5-5.7-8-3-6.7-5.3-13.8-8.2-21a11 11 0 0 1 0-4.7c2.2-1 3.7-1.6 4.2 1.4.8 4.2 2.2 8.4 3.3 12.6 1-3.8 2.5-6.2 6.7-5.7v.5c2.1 5 4.3 9.6 6.7 14.8l1.4-3.4c1.4 2.1 2.4 3.8 3.6 5.9 1.1 3.4 2.2 6.4 3.4 9.4l1-.2-2.2-10c1-.4 1.8-.5 2.8-.2 2.2 5.6 4 11 7.5 15.5l1.3-.6c-.6-2-1.2-4.2-1.6-6.6.5-.6.8-.9 1.5-1 1.5 1.3 3.2 2.4 3.6 3.8 1 3.7 1.6 7.5 1.7 11.2 0 4 1.9 6.3 5 7.7l3-8.5c1.5 2.5 3 5 4.5 8 1.2 2.5 2.3 4.5 3.4 6.4l6 17.7 2.8 10.3z"/>
  <path fill="#937F7A" d="M405 116.2c-2.7-.4-5.4-.8-8.8-1.5-6.1 0-11.5 0-16.9.4a41 41 0 0 0-21.8 8.9l-5.5 2.4c3.4-5.3 6.9-8.5 12-9.7 1.2-.3 2-1.9 3-3.2 1.7-4-1.1-4-3.3-4.5l-6.8-1.6c11.2.9 22.4 1.2 33.5 2.9 11.9 1.8 23.6 4.9 35.3 7.6 3.4.8 6.6 2.4 10.2 4a125 125 0 0 0 4.7 2c-.6.7-1.7 1.9-2.5 1.8a110 110 0 0 1-13.7-3c-1.4-6.1-5.5-3.3-8.5-3.7l-6.8-2.2-4-.6z"/>
  <path fill="#70554D" d="M245 132.2c19.2-9.4 39.5-15 60.6-19.4.4 1.3.3 2.1 0 3l-1.8.4-2.2.8-2.7.9-37.2 11.2-20 9a115.6 115.6 0 0 0-42 29.9c-1.2 0-2 0-2.6-.3l7.2-9.8c7.1-5 13.7-10.3 20.8-14.8 6.4-4 13.3-7.3 20-10.9z"/>
  <path fill="#84594C" d="M200.1 153c3.4-3.7 6.5-8.1 10.7-10.6 19.7-12 40.1-22.6 62.6-28.6 1-.3 2.3.3 3.5.8-4 2-8.1 3.6-12.8 5.4l-2 1-12.2 4.8c-11 6-21.5 11.5-31.8 17.5-5.8 3.4-11.4 7.3-17 11-.2-.4-.5-.7-1-1.2z"/>
  <path fill="#9A827B" d="M528.2 204.6c-.3.3-.6.6-1.4 1a84 84 0 0 0-9-15l-6-7.5c-2.6-3.6-4.6-7.8-7.9-10.6-9.6-8-19.7-15.6-29.6-23.3-1.3-1-2.3-2.5-3.4-3.7l1-1.3c2.2 1.3 4.7 2.4 6.8 4 7.2 5.3 14.1 10.9 21.2 16.3.5.4 1 1.1 1.5 1.3 11 3.8 13.5 15.7 21.5 23.2z"/>
  <path fill="#D6C5B8" d="M201 154.5c5.7-4 11.3-7.8 17-11.2 10.4-6 20.8-11.6 31.6-17.4l-4.5 6c-6.7 4-13.6 7.2-20 11.2-7 4.5-13.7 9.7-21 14.8-2.4 1.2-4.1 2.3-6.2 3.3a9 9 0 0 0-2 1.7h-2.6c2.2-2.7 4.8-5.4 7.6-8.4z"/>
  <path fill="#B99F97" d="M528.6 204.7c-2.1-5-3.8-10-5.5-15.4a73 73 0 0 1 19 29.4l-3.2 8.8c-3.1-1.4-5-3.6-5-7.7 0-3.7-.7-7.5-1.7-11.2-.4-1.4-2.1-2.5-3.6-3.9"/>
  <path fill="#937F7A" d="m305.8 115.8.2-3a243 243 0 0 1 24.8-3.3c3.7 1.1 7 1.8 10.7 2.5l12.9-1c3.2 1 6 1.9 8.2 2.9z"/>
  <path fill="#DDD0C8" d="m565.1 292.9-6.5-31.5c-.7-3.3-1.7-6.4-2.6-10 .4-.5.7-.5 1.6-.6 2.8 8 5.1 16 7.6 24a54.6 54.6 0 0 0 3.2 7.8 10 10 0 0 0-.4 2.4l.1.8L571 301a72 72 0 0 1-1.2 7.3l-2.3-3.5-.4-4.6c-.1-1-.3-1.2-.7-1.4v-2l-1.1-3.9z"/>
  <path fill="#C7A897" d="M511.9 183.5a58.3 58.3 0 0 1 9.6 13.2c-.7.3-1.2.4-1.7.4-.9.1-1.8.2-3 .6l-2 .4-3.5-5.5-1.4 3.4c-2.4-5.2-4.6-9.8-6.7-14.8 3 3 6 6.4 9.6 10.5l-1-8.2zm-8.8-3.1c-4-.2-5.6 2.2-6.6 6-1.1-4.2-2.5-8.4-3.3-12.6-.5-3-2-2.4-4.2-1.8a27.8 27.8 0 0 1-4-5.6l.1-.5c8.6 1.4 13.3 7.7 18 14.5"/>
  <path fill="#7A6058" d="M290.5 111.1c.7-1 1.7-2.4 3-2.7 5.8-1.6 11.5-3 17.3-4 2.1-.4 4.5.6 7 1.3a600 600 0 0 1-27.3 5.4m72.6 2.7-8.8-3c-.8-1-1.1-1.8-1.4-2.5l3.6-.9c2.6.5 5 1 7.2 1.6 2.2.5 5 .5 3 4.5-1.6.3-2.6.3-3.6.3"/>
  <path fill="#4D3E3E" d="M352.5 108.3c.7.7 1 1.5 1.4 2.4-4 .6-8 1-12.3 1a14 14 0 0 1 2.4-3.4z"/>
  <path fill="#7A6058" d="M343.6 108.2c-.5 1.1-1.4 2.2-2.5 3.5a57 57 0 0 1-9.9-2.1c4-.8 8-1.1 12.4-1.4"/>
  <path fill="#DDD0C8" d="M549.9 233a30.2 30.2 0 0 1-3.3-5.7q1.8 2.3 3.3 5.7"/>
  <path fill="#7A6058" d="M287.3 112c.5-.3 1.3-.7 2.4-1-.4.4-1.2.7-2.4 1"/>
  <path fill="#D6C5B8" d="M262.4 121c.2-.2.6-.5 1.3-.8-.2.3-.6.6-1.3.8"/>
  <path fill="#DDD0C8" d="M556.2 244.7c.2 0 .5.4.7 1-.2 0-.4-.4-.7-1"/>
  <path fill="#C7A897" d="M437.1 122.4c-.1 0-.5 0-.9-.3.3-.2.5 0 1 .3zM485 166c-.2 0-.3-.3-.4-.4l.4.2c.1 0 0 .2 0 .2"/>
  <path fill="#CEAE97" d="M321.1 105.8c0-.2.2-.4.8-.5 0 .3-.2.5-.8.5"/>
  <path fill="#D6C5B8" d="M192.7 162.8c0 .2-.3.2-.8.2 0-.3.3-.3.8-.2"/>
  <path fill="#CEAE97" d="m286 107-.7.6-.4-.1 1-.5q.2 0 0 0z"/>
  <path fill="#5F453D" d="M197 168h3a6 6 0 0 1 2.1.3l.8 1c-3.1 6.8-6.5 13-9.3 19.6-2.3 4.9-4 10-6 15.4l-2.5 5 2 .8 2-5.4c6.9-12.6 11.2-26.5 23.6-35.7 4 7.7-4 12.3-4.6 19.8a53 53 0 0 1 6.8-3.9 21 21 0 0 0 1.8 2.8c.4-.7.9-1.4 1.7-2.3 2.8-2.2 5.5-4 7.8-6.3l14-14.1c.9 0 1.3 0 1.8.4l-1 7.6h-.3c-.5.7-.7 1.2-1.3 1.8-.3 1-.4 1.7-.5 2.7 0 .1 0 .4-.2.6-.4.8-.6 1.3-1.1 1.9-4.8.5-6.5 3.4-7.3 7l1 1 7-8.2 1-2c.4-.3.6-.6.7-1.2s.2-1 .4-1.3c.2 0 .6 0 .6.3l.3 2c0 .6-.1 1-.5 1.6-.4.7-.6 1.3-.8 2.1 0 .2-.2.7-.4.8-.4.3-.5.6-.7 1 0 .5-.1.7-.4.9-.4.5-.6 1-.8 1.5l1.5-.3c.5-.1.7-.1 1-.3.5-.2.7-.4 1.2-.8 2.4-1.1 4.5-2.2 6.8-3l.9 1.3a14 14 0 0 1-.6 2.8l-2 3.1 1 .9 2.7-3.2c4.2-4.7 7.8-9.5 12-13.6 9-8.6 18.1-17 27.3-25.3 1.5-1.4 3.5-2.3 5.5-3.2l1 1-1.3 2.4-1.4 2c-5.6 6-11.4 11.8-16.8 18-3 3.5-5.3 7.7-7.7 11.6-.9 1.3-1.3 2.8-2 4.3l1.2 1.2c1.6-.9 3.3-1.7 4.9-2.8 1.9-1.4 3.4-3.2 5.4-4.3 1.5-.8 3.5-.8 5.2-1.2-.1 1.7.3 3.7-.5 5.2-1.8 3.7-4 7.1-6.5 11.1-.5.5-.6.5-1 .7l-2.9 1.2 1.3 1.5c1-.5 2.1-1 3.2-1.8l.1-.8a35 35 0 0 1 4.7-.2l.2 2c1.5 3 2.9 4.2 5.2 1.1l.7-1c0-.1 0 0 0 0 2.8-1.4 6-2.2 8.3-4.1 7.2-6 14.1-12.5 21.5-18.6.6.6.9 1 1.2 1.6-2.5 5-4.6 10.2-7.6 14.8-2.2 3.7-2.7 7-.5 11.2.8.4 1.5.2 2.1 0 1.5-3.2 3-6.4 5-9.8l2-1.2c1 1.6 2.5 3 2.9 4.7.5 2 .1 4.3.1 7.1.7.7 1.4.6 2 .5a97 97 0 0 0 28.7-11.8c.3 1 .4 1.8.4 2.6-.7 5.7-1.4 11.3-2 17.6.3.6.6.5.9.5 5.5-5 11-9.8 17-15l2-.2c-1.6 4-.6 7.5 1.5 11.3 1.5 2.7 1.5 6.6 1.4 10-.2 4.7 2 5.8 5.7 4.5 4.7-1.7 6.4.5 7.4 5.1.7.6 1.4.4 2 .3a38.7 38.7 0 0 1 21.8-18l2.1.8.1 14.8c.7.7 1.4.6 2 .5 6.9-.2 10.7-4.5 14-9.7 1-1.5 2.2-2.9 4-4.5h2a34 34 0 0 1-7.8 22l1.5 1c1.5-.6 3-1.3 5.2-2l1.1-.1c5.6 8 17 6.5 23.3-3.6.8-.4 1.2-.4 1.6-.4l-7.1 19.5a80 80 0 0 0-3.1 9.4c-.2.8 1 2 2 3.3.4.5.5.7.5.9-2.3 10.7-9.8 18.3-16.4 26.3-4.4 5.5-10 10.1-15.3 14.9-11.2 10-25.3 12.7-39.5 14.6a281.7 281.7 0 0 0-68.2 17.6c-4.4 1.7-9.2 2.4-14.7 3.6l-2.2.1c-2.4-1.3-4.7-3.3-7.3-3.7-9.1-1.5-18.3-3-27.5-3.3-7-.2-14.1 1.7-21.2 2.3-6.2.5-12.4.3-18.7.6-4.4.2-8.9.4-13.3 1-12.1 1.4-24.4 1.6-36.7 6H171c-1-1.1-1.9-2.3-3-4.1l-.2-2c2.9-2.3 5.7-4.5 9.2-6.9.4-.9.3-1.5.1-2.2-8.5-5.3-16-1-23.8 2.4-10.2 4.4-10.3 4.3-10.3 15.4v36.8a179 179 0 0 1-2-9.2l-6.3-33.7c-.4-2.3-1-4.8-1-7.2.2-6.5-2.6-11.7-6.6-17l-2.4-2.9-1.6 2.7c-.2.3 0 .7 0 1l-2.4 5.6-6.3-2.7c0-2 .5-4 1-6.4l1 2.3c5.2-3.6 5.2-3.6 6.1-14.9l6.8-21.7-1.5-.5-7 21.8c0 .2 0 .4-.3 1l-.5 1.3-2.4 8.5-1.7-.3c.7-3.4 1-6.9 2-10.2l13.2-44.6c0-.4 0-.4.2-.6.4-1 .6-2 .7-2.8l.3-.2c.3-.7.4-1.3.5-1.9 6.9-12 13.7-24 20.9-35.9a149 149 0 0 1-4.5 12.6l-5 12.2 1 .5 7.4-15.6c1.3-2.8 2.3-5.8 3.4-8.7h.2l1.2-1 2.9-4.1c.4-.8.6-1.3 1.1-2 1.7-1.5 3.2-2.8 5-4 5.4-5.2 10.5-10.3 15.4-15.5 5.2-5.7 10.1-11.6 15.2-17.4m10.9 21.6c-.4-.2-.8-.4-1.7-.5l-.1 2.2c.7-.3 1.3-.7 1.8-1.7M405.7 284c11.6-6.5 16.6-17.9 21.7-29.3a47.7 47.7 0 0 0-22.6 29.5v.3s.2-.4.9-.5m-238.6-63.5.9-9.1.5-3.7-1.8-.7c-2.6 6-5.5 11.7-7.7 17.7-2 5.6-3.2 11.6-4.8 17.4l-1.2-.3.8-9.7-1.2-.3-7.8 19.2-1-.3 1-8.7a6.8 6.8 0 0 0-2.8 3.9l-4.6 16.3c-1.1 3.8.4 5.9 4 7.2 2.5-4 4.8-8 7-12-.6 5.2-2.2 10-3.4 15-1.6 6.6-2.8 13.3-4.6 19.8-1.8 6.9-4.2 13.6-6 20.5-.4 1.5 0 3.9 1.1 4.9 2.2 2.1 5 3.7 8 5.8l14-26c3.7 8-6 12.2-6.3 19 4.4-1 8.1-1.5 11.6-2.8a102 102 0 0 0 35.6-23.3c2.5-2.4 5.7-4.1 8.6-6.2l1.3 1.2c-7.6 16-15.4 31.8-28.9 44.2 3.7 3.3 6.4 4 10.2 2 4.6-2.6 9.5-5.7 14.5-6 7.4-.6 14.8 1 22.3 1.6 2.9.3 5.9.6 8.7 0 8.3-1.5 16.5-4 24.8-5.4 9-1.5 17.7-2.7 26.4 2.8 5.7 3.5 12.7 5 19.1 7.2 1.2.4 2.7.2 3.9-.3 9-3.2 17.9-7.1 27.1-9.8 12.4-3.7 24.9-7.5 37.6-9.1a67.5 67.5 0 0 0 29.4-9.4c5-3.2 9.7-6.5 14.6-9.8-3.2-4.2-6.1-4.6-10-2.3a58 58 0 0 1-10.5 4.7c-4.5 1.6-9.2 2.8-13.8 4.2l-.7-1.1 18.6-33c.8-1.4.8-3.4 1.2-5l-5.1 1.8h-1c-.4-5-1.5-5.5-6.3-3.2-12.8 6-25.5 12.2-38.4 18-2.9 1.4-6.3 1.7-10.4 2.7 3.9-6.7 7.2-12.2 10.3-17.8a27 27 0 0 0 2.4-19.4l-7.2 7-1-.7 1.5-5.4-.8-.9-22.3 17c-2-7.4-2.5-13.2.6-19 1.2-2.4 3.4-5-.3-8l-17 14.7c2.7-6.9 5.5-13.7 8.4-20.6v-.3s-.2.4-.9.5l-1.7 1.7c-6.3 5.6-12.4 11.3-18.8 16.8-1 .9-2.7 1-5 1.6l3.8-14.3-19.4 16c2.8-13.2 12.5-23.5 12.5-37.1-9.1 6.7-18 12.8-26.5 19.7-6.3 5-12 11-17.9 16.6-.7.7-1.7 1-2.5 1.5 4.6-7.3 9.6-14 14.8-20.6 2.3-3 3.2-6 1.4-10.3l-8.6 8.3-11.8-3.3 6.8-9.3c-4-3-6.2-2.4-8.5 1-3.9 5.7-8.3 11-12.6 16.4l-.8-.5L226 211l-1-.9c-3.7 2.4-8.4 3.9-10.9 7.2-7.4 10-14 20.5-20.7 31-4.9 7.6-9.4 15.4-14 23.2l-.9-.5 15.5-53-1.9-.8c-5.2 9-11 17.7-15.5 27.1-5.8 12.3-10.3 25.2-15.5 37.8-.8 1.8-2.4 3.3-4.1 5.6 2.4-30.5 17.2-56.5 21.5-85.3-1.6 2-2.2 4.5-3.4 6.6a90.5 90.5 0 0 1-8 11.5m95.4-32.7 1.7 1 .5-1.8c-.7 0-1.3.1-2.2.8M426.7 236l-2.2.5.6 1.2c.6-.4 1.1-.7 1.6-1.7m-257.3-30.5s.1 0 0 0m25 10s.1 0 0 0m234 19h.2s0-.2-.3 0m-161.8-48.9v-.2s-.2 0 0 .2"/>
  <path fill="#966B50" d="M197.1 167.7c-5.2 6-10.1 12-15.3 17.7-4.9 5.2-10 10.3-15.5 15-.7-1.7-1-3-1.4-4.5 0 0 0 .1.4 0 3.4-3.1 6.6-6.1 9.4-9.5.9-1 .8-3 1.2-4.5 6.6-6.1 13.3-12.2 20-18.6 0-.4 0-.4.4-.4l2-1.7 5.4-3.1q-2.9 4.5-6.6 9.6M156 212c-1.1 2.9-2.1 5.9-3.4 8.7-2.3 5.2-4.9 10.4-7.3 15.6l-1.2-.5 5-12.2a244 244 0 0 0 5-13.3l2 1.7z"/>
  <path fill="#84594C" d="M164.6 196c.7 1.3 1 2.7 1.4 4.5a30.4 30.4 0 0 1-4.9 4.4 4 4 0 0 0-1 2.2c-.8 1.2-1.6 2.5-3 3.8-.8 0-1 0-1.1-.4v-3c2.7-3.8 5.5-7.6 8.6-11.5m11-14c-.1 1.4 0 3.3-1 4.4-2.7 3.4-6 6.4-9.3 9.5a12 12 0 0 1 1.9-4.6c2.6-3.1 5.4-6 8.4-9.3"/>
  <path fill="#5F453D" d="M155.7 207.7c.3.6.3 1.5.3 3v1.3l-1.8-1.8c.2-.9.7-1.6 1.5-2.5"/>
  <path fill="#A87B5F" d="M131.8 249.2c0 .7 0 1.5-.5 2.6-.1-.6 0-1.5.5-2.6m.8-2.1c.1.4 0 1-.3 1.7-.1-.3 0-.9.3-1.7"/>
  <path fill="#9A827B" d="M572.9 343c-6-4.2-9.2-9.7-7.7-17.6a427 427 0 0 1 17 14.9l-.6 1.7zm4 1.7c-.2.1-.5 0-1-.3.2-.2.5-.1 1 .3"/>
  <path fill="#B7B5B7" d="M587 323.7c-.1 0-.2-.2-.2-.6.1 0 .2.2.2.6"/>
  <path fill="#84594C" d="M121.2 296.8c2-7.4 4.3-14.6 6.6-22l1.5.6c-2.2 7-4.3 14-6.7 21.2-.5.3-.7.3-1.4.2m-1 2.1c-.1-.2 0-.4.3-.8.2.1 0 .4-.3.8"/>
  <path fill="#937F7A" d="M567.3 305.3c1 .7 1.7 2 2.4 3l1.5-7c.5-.3 1-.3 1.8-.1.3 3.4.2 6.7.3 10.4-1.8 1-3.6 1.7-5.8 2.4-.4-2.7-.4-5.5-.2-8.7"/>
  <path fill="#7A6058" d="M568.2 284.8c-.2-.5 0-1.3.4-2.2.2.5 0 1.2-.4 2.2"/>
  <path fill="#754738" d="M495.1 412.1c-.4.1-.7.2-1.5 0 1.7-7.6-1.6-13.9-3.6-20.3-.2-.8-1-1.8-1.8-2.1-5.4-2-10.8-5.1-16.4-5.5-17-1-33.8-.2-50.3 4.6-3.7 1-6.1 3-8.6 6-4.9 5.7-7.4 11.6-4 19 0 .3-.2 1-.6 1.3-8-7.3-15.8-14.3-26.9-16.6-14.3-3-28.4-6.3-43.2-3.5-16.2 3-32.4 6-44.9 17.8 1-9-1.5-15.7-9-20-3.5-2-6.8-4.8-10.4-5.5a167 167 0 0 0-50.3-2c-5.7.7-11 4.3-16.4 6.8-.6.2-1 1.3-1.1 2-1.4 7.4-3.8 14.8.4 22.3 1.4 2.5 1.8 5.6 2.7 8.4-1.4-1.2-3.1-2.1-4-3.6-4.6-7.5-9.7-14.8-13-22.9-2.1-5.3-1.6-11.8-1.8-17.8 0-.8 2.7-1.9 4.3-2.4 2.7-1 5.5-1.7 8.8-2.9 5.5.4 10.4 1.2 15.3 1.8 13.5 1.7 26.9 3.5 40.4 4.7 7.3.7 14.8.1 22.2.1 0-4.9-2.3-7.2-6.1-8.6-3.5-1.3-7-3-10.4-4.5 5.3 1.2 10.5 2.6 15.8 3.6 7 1.4 14 3 21 3.6 12.1 1 24.4 1.4 36.6 2.1 3.2.2 6.3 1 9.4 1 10.8-.3 21.7-.8 32.5-1.3 2.5 0 5-.8 7.4-.6 14 .8 27-2.5 39.8-7.3 4.6-1.8 9.5-3 14.4-4.8.6-.3 1-.3 2-.2 1.4 0 2.1 0 3.2.2 1.4.4 2.4 1 3.3 1l30.2-5.2c.3 0 .3-1.6.5-2.5 10-3.2 18.9 0 27.6 6-5.1 4-10.5 7.6-14.5 10.3l17.5 8c-7 9.8-14.7 18-16.5 29.5m-56.7-31c17-1.9 34-3.1 50.3-8.7-5.7-.8-11.3-.3-17-.2h-30.6c-2.8-.1-5.5-.8-4.8 3.5-3.3.5-6.3.8-9.2 1.4-1 .2-2 1.2-3 1.8 1.2.7 2.2 2 3.4 2 3.3.3 6.6.1 10.9.1z"/>
  <path fill="#1E1A1A" d="M209.4 425c-1-3-1.5-6.1-2.9-8.6-4.2-7.5-1.8-14.9-.4-22.3 0-.7.5-1.8 1.1-2 5.4-2.5 10.7-6.1 16.4-6.8a167 167 0 0 1 50.3 2c3.6.7 7 3.5 10.3 5.4 7.6 4.4 10.2 11.2 9 20.4-2 6-4.2 11-9.5 14-4 2.3-7.8 5.2-11.8 8h-1.8a3 3 0 0 0-1.3.7c-6.2 1-12.3 2.4-18.5 2.7-6.3.4-12.7-.5-19.8-1a235 235 0 0 0-7.1-1.4c-3.5-2.7-6.6-5.3-10-8.4-1.1-.8-1.8-1.2-2.5-1.5zm11.6 3.8c.7.4 1.3.8 2.3 1.7l2 1.3.6-.6a13 13 0 0 1-1.6-3c-1.6-8-3-16-4.4-24.9l1.3-8.7-1.6-.6c-1.2 1.5-2.5 3-4.3 4.8-.6.6-1.1 1.2-2.3 2-1.3 2-3.9 4-3.8 6 .3 8.9 2 17.4 11.8 22m6.2-30.7-2.2 8.2c4-2.2 5.4-5 2.2-8.2"/>
  <path fill="#C7A897" d="M362.6 113.9h4c-.6 1-1.4 2.5-2.5 2.8-5.2 1.2-8.7 4.4-12.1 9.7a29 29 0 0 1 5.8-2.2c3.3-.6 6-1.6 8.9-2.3l18.3-4c-4.9 1.6-9.7 3.4-14.5 4.8-8.7 2.7-15 9-22 14.2-4.8 3.6-10.1 6.5-15.2 9.7l-1.4-1.8 11.5-12c-7.6-2.6-7.9 5.6-12.6 6.9-4-4.6 2.3-6.6 2.8-9.7-12.7-3-20.7 5.2-29.2 12.1-1.8 1.5-3.5 3.3-5.3 4.9l-1-1 9-11.8-1.1-1.5a77 77 0 0 0-8.4 5.3 100 100 0 0 0-7.3 4.2L281 149v-.3a88 88 0 0 1 1.8-5.5l-5 1.6c.3-2.7.3-4.8.8-6.9.6-2 1.6-4 2.4-6l-.9-.7-10 7.8-1.6-1.4L276 127l-1.1-1.2-8.6 5.3c-1.2.7-2.3 3.2-3.5-.3l-.8-1.7 36.8-11.3 3-.9c1.2-.3 1.7-.5 2.2-.8.4 0 .8-.2 1.5-.4 19-.6 37.8-1.2 57-2m-76.8 25.5c.1 0 .2 0 0 0"/>
  <path fill="#6A493E" d="M317.6 517.9c-11.3 1.3-22 2.8-33 3.6a85 85 0 0 1-16.7-.7c-4.4-.6-6.6-8.7-3.4-11.8 5.6-5.3 11.5-9.7 20-6.8 1.5.5 3.5 0 5.2-.4 10.4-1.9 21-3.4 31.2-6a29.3 29.3 0 0 1 15.4-.8c2.2.6 4.5 1.1 6.4 2.3 5.7 3.4 6.9 7.1 4 13.2-.5 1.1-2.4 2.1-3.8 2.4-8.3 1.8-16.6 3.3-25.3 5"/>
  <path fill="#6B4E46" d="M383.8 494.8c1.7-.3 3-.4 4.6-.4 7.8 1.9 15.1 4.3 22.7 5.4a94.4 94.4 0 0 1 30 11.5c-2.5 2.3-4.6 5.3-7.5 6.7-3.2 1.5-7 2-10.6 1.9-8.4-.5-16.8-2-25.2-2.3-12.4-.4-23.7-7.4-36.6-5.8-5 .7-4.9-5-6.5-8.1-.3-.6 2.2-3.2 3.8-4.4a16.7 16.7 0 0 1 16.2-2.5c2.5.8 5.8-1.2 9.1-2"/>
  <path fill="#402721" d="M264.7 368.7c3.7 1.5 7 3.2 10.6 4.5 3.8 1.4 6.2 3.7 6.1 8.6-7.4 0-14.9.6-22.2 0-13.5-1.3-27-3.1-40.4-4.8l-15.2-2.1c-1.2-.3-2-.6-3.3-1.3l-3.7-4.4 16.4 2.6.2-1-6.1-3.7c2 0 3-.2 4 0 9.4 1.6 18.5 4.3 28.3 2 6.8-1.6 13 1.8 19 4.5 1.7.8 3.7 1 5.5 1.3l.4-1.7-11-4 10-.6z"/>
  <path fill="#754738" d="M263.1 368.3c-2.8.5-5.8.7-9.9 1l11.1 3.9c0 .6-.2 1.1-.4 1.7-1.8-.4-3.8-.5-5.5-1.3-6-2.7-12.2-6.1-19-4.5-9.8 2.3-19-.4-28.3-2-1-.2-2 0-4 0l6 3.8-.1 1-16.4-2.7a41 41 0 0 1 3.4 4.4c-6.4-2-13-4.4-19.8-7 4.6-3 8-5.6 11.6-7.8a9.4 9.4 0 0 1 5-1.7c5.8.2 11.7.9 17.7 2-1 .7-2.2 1-4.3 1.6l33.4 6.3-.7-3.7c6.7 1.6 13.3 3.1 20.2 5"/>
  <path fill="#814735" d="M329 481.9c2-7.4 2.8-7.3 9.9-6.9 9.5.7 19.2.7 28.7.1 5.5-.4 5.3 3.8 7.6 6.5a39.6 39.6 0 0 1-31.4 10 19.3 19.3 0 0 1-14.7-9.7z"/>
  <path fill="#814B38" d="M300 531.3c-5 2.5-6.7-2.3-10-3.8l.1-1.7c4.4-.9 8.8-2.5 13.2-2.7a3187 3187 0 0 1 75.7-2c9 0 17.8 1.8 26.7 2.6 2.9.3 4 2.1 3.1 4.4-.5 1.3-2.6 2-4.7 2.7a55 55 0 0 1-6-1.4l7-2v-1.8c-12.5-.5-25-1-37.4-1.2-2.2-.1-4.3.5-6.4.5l-42.4.1c-5.1.1-10.2 1.1-15.3 1.6-3 .3-4.1 1.8-3.6 4.7"/>
  <path fill="#4F261E" d="M300.4 531.2c-.9-2.8.3-4.3 3.2-4.6 5.1-.5 10.2-1.5 15.3-1.6 14-.2 28.2 0 42.4 0 2 0 4.2-.7 6.4-.6 12.4.3 24.9.7 37.3 1.2l.1 1.8-7.3 2c-15.7.2-30.7 0-46.1-.2h-9.3l-18.5.2c-1.2 0-2 .3-3.4.5l-16.3 1.6z"/>
  <path fill="#C4A596" d="M324.2 529.6c6-.2 11.8-.3 18.4 0 3.5.2 6.5 0 9.5-.3 15 .1 30 .3 45.4.3 2.2.3 4 .7 6.2 1.2-.8 1.2-2 3-3.1 3-4 .1-8-.8-12-.7-9 .1-18.2 1-27.3.8-11-.2-21.8-1.4-32.8-1.7-6.2-.2-12.5.6-18.8.8-1.8 0-3.5-.6-5.4-1.2a139 139 0 0 1 16.4-1.6c1.6 0 2.5-.3 3.5-.6"/>
  <path fill="#CB9863" d="m150.2 409.5-1.5-14.8 1.9-.7c2 2.8 4.3 5.5 6 8.4 3 5 5.8 10.2 8.1 15.4.7 1.5.2 4.2-.8 5.5-1.4 1.9-3.8 3-6.1 4.8z"/>
  <path fill="#CCC3C1" d="M385.3 118c-6.4 1.2-12.5 2.5-18.6 4-2.8.6-5.6 1.6-8.6 2.2 6-5.3 13.2-8.4 21.2-9.1 5.4-.5 10.8-.5 16.5-.4-2.5 1-5.3 1.8-8.3 2.8-.8.3-1.3.4-2.2.4z"/>
  <path fill="#4C342E" d="M242.5 363.2c.6 1.2.8 2.2 1 3.8l-33.3-6.3 4.5-1.4a50 50 0 0 0 8.6 1.4L236 362c2 .2 4 .8 6.6 1.2z"/>
  <path fill="#C8A476" d="M421.8 138.2c.8 0 1.3.2 2 .6-2.4 3.8-5 7.4-7.7 10.8-1.7 2-3.9 3.6-5.8 5.4l-1.3-1.3z"/>
  <path fill="#CB9863" d="m149 357 6.2-11.8c5 4.3 3.4 7.3-5.8 11.8z"/>
  <path fill="#846A63" d="M289.7 181c-1-5.7 2.6-9 6-12.6l1.6.9c-2.4 3.9-4.8 7.8-7.6 11.8z"/>
  <path fill="#70554D" d="M287 196.3c-2 3-3.4 1.6-4.9-1a94 94 0 0 1 7.6-6.7c-.8 2.6-1.3 4.2-1.7 6 0 .4 0 .4-.2.4-.4.4-.6.9-.7 1.3z"/>
  <path fill="#A59B96" d="m355 147.2.5-12.8c.7 0 1.4.2 2 .3z"/>
  <path fill="#70554D" d="m298 138 1.6-1c-.9 2.4-2 5-3.4 7.7-.5 0-.7-.3-1-1.1.9-2.2 1.8-3.9 2.8-5.6"/>
  <path fill="#8A6756" d="m461.3 226.8-2 .3c.7-1.8 1.6-3.5 2.4-5.3l1.5.6c-.6 1.4-1.1 2.8-2 4.4z"/>
  <path fill="#70554D" d="M354.3 191.9a7 7 0 0 1-.3-2.6c.8-2 1.7-3.5 2.5-5l1.2.6z"/>
  <path fill="#754738" d="M223.1 360.3c-1.8.1-3.9-.1-6-.7 1.8 0 3.8.2 6 .7"/>
  <path fill="#8A6756" d="M323 564.8c-1.4.2-2.7.2-4 0v-.8l4.6-1c.1.5-.2 1-.6 1.8"/>
  <path fill="#70554D" d="M319 173.7c-.3-.2-.6-.7-1-1.5.5-1.2 1-2 1.6-3l1 .5-1.5 4zm117 36c-.5.3-1 .3-1.8.3.3-1.3.8-2.5 1.4-3.7l1 .4c0 .9-.2 1.8-.5 3zm-64-15c-.5.3-1 .3-1.8.3a12 12 0 0 1 1-3.7l1.1.3z"/>
  <path fill="#C7A897" d="M293.4 149.5c.3-.7.7-1.3 1.3-1.9a4 4 0 0 1-1.3 1.9"/>
  <path fill="#70554D" d="M415.7 224.2c-.3.2-1 .3-1.7.1.5-.2 1-.2 1.7 0zm-1.7-15.5c-.6.1-1.1 0-1.8-.5.4 0 1 .1 1.7.5zm-24.3 17.5a3 3 0 0 1-1.7.1c.5-.2 1-.2 1.7-.1"/>
  <path fill="#8A6756" d="M453.5 260c-.3-.1-.4-.3-.4-.8.4-.5.8-.6 1.2-.7-.2.5-.4 1-.8 1.5"/>
  <path fill="#70554D" d="M312.7 200c-.3.2-1 .4-1.7.3.4-.2.9-.2 1.7-.2zm12 1.2c-.3.2-1 .3-1.7.1.5-.2 1-.2 1.7 0zm-42.7-8.5c-.5.3-1 .3-1.8.2.4-.1 1-.3 1.7-.2z"/>
  <path fill="#8A6756" d="M177 325.2c.3.4.4 1 .3 1.7-.3-.4-.3-.9-.2-1.7zm-9.5 8.8c.3.4.4.9.3 1.7-.2-.3-.3-1-.3-1.7m129.5 3.5c.4-.3.9-.3 1.7-.3-.3.2-1 .3-1.7.3"/>
  <path fill="#754738" d="M211 426.5c.6 0 1.3.4 2.1 1a4 4 0 0 1-2.2-1z"/>
  <path fill="#70554D" d="M319.8 188.8c-.3.5-.8.8-1.6 1.1a3 3 0 0 1 1.6-1z"/>
  <path fill="#CB9863" d="m149 357-.5 1c0-.2 0-.5.3-.9z"/>
  <path fill="#70554D" d="M352.8 210.1c0 .1-.4.2-.7 0zm83.2 20.7c-.1.2-.3.2-.8.2 0-.1.3-.2.7-.2z"/>
  <path fill="#8A6756" d="M171 340.3c.1-.2.3-.2.8-.2 0 .1-.3.2-.7.2z"/>
  <path fill="#1F1B1C" d="M408.6 415.2c.1-.5.4-1 .2-1.5-3.3-7.3-.8-13.2 4.1-19a18 18 0 0 1 8.6-6 146 146 0 0 1 50.3-4.5c5.6.4 11 3.5 16.4 5.5.8.3 1.6 1.3 1.8 2.1 2 6.4 5.3 12.7 3.3 20.2.2.4 0 .7-.3 1a1462 1462 0 0 1-8.7 14.6c-5.2 3.1-9.8 6.5-15 8.2a64.6 64.6 0 0 1-31.2.5c-7.5-3.3-15-6.6-22.7-10.5zm71 12.1c2.3-3 4.6-6.1 6.7-9.2 4.6-6.6 0-12.3-1.6-18.3-1.1-3.7-4.2-5-8.9-5.5 4.7 12.2 1.8 23.5-2 35 2.2-.7 3.7-1.1 5.9-2m-62-9.5-1-12.1-1.3.1c-.5 3.8-1 7.5-1.3 11.2-.2 3 1.3 3 3.7.8z"/>
  <path fill="#A87B5F" d="M408.3 415a119 119 0 0 1 6.8 10.6c-6.3-1.4-12.6-3.3-19-5-10.3-3-20.6-6-31-8.7-12.4-3.1-24.1-1.8-34.3 7.1-9 8-20.4 10.7-31.9 12.9-8.7 1.6-17.6 2.4-26.7 3.4 3.7-3 7.4-6 11.5-8.2 5.3-3 7.6-8 9.7-13.5 12.4-12.7 28.6-15.5 44.8-18.6 14.8-2.8 29 .5 43.2 3.5 11 2.3 18.8 9.3 27 16.6z"/>
  <path fill="#664A42" d="M527.7 266.7c-1-13.2 3.1-25.2 6.3-38.3l6.6 24 .9-6.3c6.2 3.5 6 10 8.3 15.3l3.5-2.8 3.7 34c0 .5 0 .4-.2.5l-.8 1c-1 3.2-2.3 6.4-3 9.8-1.2 6.8-2.2 13.8-3.7 20.5-.3-11.7-.3-23.2-.3-35.3l-2.2 4.7-2.5-7.3-.8.2-1 5.3H541v-19.3h-2l-.9 8.1-1 13.2c-1-2.1-1.9-4.2-2.6-7-1.6-5.4-3.4-10.2-5.2-15.1l-1.5-5.2z"/>
  <path fill="#A67761" d="M495.5 412c1.4-11.3 9.1-19.6 16-29.4l-17.4-8c4-2.7 9.4-6.2 14.8-10.1 4.6 3.6 10.6 2.1 15.8 3.6a10 10 0 0 1 5.3 3.3c4.3 6 3.8 11.3-1.2 17.7a75.7 75.7 0 0 1-33.3 23z"/>
  <path fill="#E2CFCA" d="M497 206.5c1.5 10.8-2.6 19.6-7.6 28-7.8-2.3-7.7-2.4-6.6-9.9 1.9-11.6 3.6-23.2 5.3-34.8 0-.4.5-.8 1-1.6 2.7 6.2 5.3 12 7.9 18.3"/>
  <path fill="#4C342E" d="m537 294.4 1-13.6c.2-2.7.6-5.4 1-8.1h2V292h1.5l1-5.3.8-.2 2.5 7.3 2.2-4.7v35.5c0 3.2 0 5.9-.5 9-1.3.4-2.3.4-3.3 0l-1.5-5.5-5.7-30c-.2-1.1-.7-2.2-1-3.7"/>
  <path fill="#E0C6BB" d="M543.3 328a27 27 0 0 1 1.8 6l.5 11-1.7.7c-1.4-5.9-7-7-11.1-9-4.8-2.4-6-6.3-7.1-10.6-.3-.8.4-2.4 1-2.8 3.6-2 7.3-3.8 11-5.6 2 3.8 3.6 7 5.6 10.3"/>
  <path fill="#D6C5B8" d="M438.4 436.6c10.2 1.3 20.8 2.8 31-.8 5.1-1.7 9.7-5.1 14.8-7.9l10.2-3.8c-1 2.3-1.2 4-2.3 5a33 33 0 0 1-18.5 9.7 80.8 80.8 0 0 1-32.4-.7c-1-.2-1.8-.8-2.8-1.5"/>
  <path fill="#E0C6BB" d="m502 238.3-7 10.7a37.3 37.3 0 0 1 5.8-30.4l1.1 19.7zm-143.5 212c-8-1.8-8-1.8-6.6-9l1.6-8.1c10 2.6 7.2 11.9 11.4 18.8z"/>
  <path fill="#CCC3C1" d="M404.8 116.4c1.4 0 2.5 0 4 .4.2 2 .4 3.8 0 5.6 0 1-1 2.1-1.8 2.4-3.6 1.4-7.4 2.5-12 4l-3.2-5z"/>
  <path fill="#5F453D" d="M480.6 358.3c.2.9.2 2.4-.1 2.5-10 1.8-20.2 3.5-30.2 5.1-1 .2-2-.5-3-1 .1-.8.5-1.2 1-1.5l28-4.6 1.7-.5z"/>
  <path fill="#D7D0CD" d="m421.9 125 8.2 1.5c3.8.5 4.8 2.5 3.2 6.2-.8-.4-1.6-.5-2.2-1-5.5-4.3-7.6-4-14.8-.5-3.2 1.5-7.4 1-11.7.2A646 646 0 0 1 422 125z"/>
  <path fill="#6B4E46" d="M545.8 345.2c-.4-3.7-.5-7-.6-10.8 1-.4 2-.4 3.3-.3 0 4.4-.2 8.8-.6 13.6a7.7 7.7 0 0 1-2.1-2.5"/>
  <path fill="#D6C5B8" d="m548.6 368.2-.2 1.4-.8 1.4a11 11 0 0 0-.4 2.8l.7 19.8c-.6-.4-1.8-1.3-1.8-2.1v-21.6c0-.5.7-1 1.4-1.7.3-.2.8 0 1 0z"/>
  <path fill="#846A63" d="M529.2 272.3a161 161 0 0 1 5 14.4 161 161 0 0 1-5-14.4"/>
  <path fill="#685F5E" d="M416 119.4c2.9 0 7-2.8 8 3.1a34 34 0 0 1-8-3.1"/>
  <path fill="#A47B64" d="M447.9 363.2c0 .5-.5.9-1 1.4-1 .2-1.7.2-2.8.1a11 11 0 0 1 3.8-1.5M387 138l.2-1h.3l-.3.9zM228.2 437.3c.4-.2 1-.1 1.9.1-.4.2-1 .2-1.9-.1"/>
  <path fill="#754738" d="M492.4 414c0-.2 0-.5.5-1 0 .3 0 .6-.5 1"/>
  <path fill="#A87B5F" d="M269 435.9c0-.3.3-.5.8-.6.1.4-.2.5-.8.6"/>
  <path fill="#754738" d="M477.7 358.3c0 .2-.4.3-1 .5 0-.1.4-.4 1-.5"/>
  <path fill="#D7D0CD" d="M564.4 365.1c-2.7-1.5-5-3-7.4-4.8 4-1 8-1.6 12.6-2.3 0 2.3-.6 4.6-1.3 7.2-1.3.1-2.4 0-3.9-.1"/>
  <path fill="#846A63" d="M565 293.3q.8 1 1.2 3.3c-.5-.8-.8-1.9-1.1-3.3zm1.2 5.8c.5-.1.7.2.7.8-.3 0-.5-.3-.7-.8m-9.9-5.1c0-.2.1-.5.6-.9q0 .3-.6.9"/>
  <path fill="#C9AFA4" d="M136 367c-.6.6-1.4 1.9-2 1.8-5.8-.5-11.6-1.3-17.6-2.4 3.3-1 7-1.7 11.4-2.4h2.3s.3.1.6.5a58 58 0 0 0 5.3 2.5"/>
  <path fill="#8A6756" d="M136 366.6c-1.6-.3-3.3-1-5-2 1.5.3 3.2 1 5 2m-6-2.9c-.4.3-1 .3-1.8.2.3-.2 1-.4 1.8-.2"/>
  <path fill="#5F5655" d="M570.4 387c-.2-1-.2-2.4.1-4 .2-.3.4 0 .4.3l.2 1.8z"/>
  <path fill="#979599" d="M571.3 385c-.3-.4-.3-.8-.3-1.6.4.1.8.5 1 1.3 0 .2-.4.3-.7.3"/>
  <path fill="#B7B5B7" d="M117.2 460.3c-4.7-.3-4.7-.3-7.7-4.8 4.3-1.9 5.6 2 7.9 4.3 0 .4-.1.4-.2.5"/>
  <path fill="#8A6756" d="M547.9 371c-.1-.3.1-.6.6-1.2.2.1.3.4.3 1-.2.4-.4.3-1 .2z"/>
  <path fill="#B8A592" d="M520 197.5c.3-.4.8-.5 1.6-.5 1.8 2.9 3.3 5.7 5 8.8.9 2.4 1.5 4.5 2.1 6.6l-1.3.6c-3.5-4.5-5.3-10-7.5-15.5zm-5.1 1c.4-.4 1-.5 1.8-.5 1.1 3.2 1.8 6.4 2.5 9.7l-1 .2z"/>
  <path fill="#A47B64" d="M297.6 138c-.6 1.7-1.5 3.4-2.7 5.4-2 1.4-3.9 2.3-5.4 3.7-9.2 8.3-18.4 16.7-27.3 25.3-4.2 4.1-7.8 8.9-12.2 13.4-.7-.2-1-.5-1.3-.8l.4-2.8c.1-.6.1-1 .4-1l.6-1.6-1.5 1.2h-.6c-2 1.1-4.2 2.2-6.9 3.4-.8.3-1 .5-1 .8l-1-.2a2 2 0 0 1-.3-.9c0-.1 0-.3.3-.8l.7-1.1s.1-.5.4-.9l.9-2c0-.5.1-.9.5-1.7a689 689 0 0 1 6.5-9.1l-1.1-.9-6 5.6c.3-2.4.6-4.8 1.2-7.8.2-1.3.1-2 0-2.7L240 165c-4.5 4.8-9 9.6-13.7 14.2-2.3 2.2-5 4.1-7.8 5.9a5 5 0 0 1 .1-3c1.7-1.7 3-3.3 4.3-5l-1.5-1a84 84 0 0 1-4 5.8l-2.4 2.7-6.8 4.3c.6-7.5 8.6-12.1 4.6-19.8-12.4 9.2-16.7 23.1-23.9 35.6-.5 0-.8-.3-1-.6 1.9-5 3.5-10.2 5.8-15.1 2.8-6.5 6.2-12.8 9.5-19.7.2-1 .1-1.3.1-1.7l-1.2.6-1.7-.1a103 103 0 0 1 41.4-29.6c-.9 2.9-2 5.4-3.3 8l1.4 1.3c5.6-4.6 11-9.3 16.8-13.6 1.8-1.4 4.2-2 6.4-3 1 3.3 2.2.8 3.4 0l8.6-5.2 1.1 1.2-7.6 10.5 1.6 1.4 10-7.8 1 .7c-.9 2-2 4-2.5 6s-.5 4.2-.8 7l5-1.7-2 5.5v.7l.2-.4 9.3-6.8a100 100 0 0 1 7.3-4.2z"/>
  <path fill="#C0A792" d="M262.9 130.9c-2.1 1.2-4.5 1.8-6.3 3.2-5.8 4.3-11.2 9-16.8 13.6l-1.4-1.4 3.7-7.9c6.4-3.3 12.8-6.3 19.6-9.3.6.6.8 1 1.2 1.8"/>
  <path fill="#937F7A" d="M303.8 116.2c-.2.3-.7.5-1.6.7.3-.3.8-.5 1.6-.7"/>
  <path fill="#C0A792" d="M197.9 161.2c-.2.6-.8 1.1-1.7 1.7a4 4 0 0 1 1.7-1.7"/>
  <path fill="#33231F" d="m316 227-8.3 20.5 17.1-14.7c3.7 3 1.5 5.6.3 8-3 5.8-2.6 11.6-.6 19l22.3-17 .8 1-1.5 5.3 1 .8 7.2-7a27 27 0 0 1-2.4 19.3c-3.1 5.6-6.4 11.1-10.3 17.8 4-1 7.5-1.3 10.4-2.6 13-5.9 25.6-12 38.4-18.1 4.8-2.3 6-1.7 6.4 3.2h.9l5.1-1.9c-.4 1.7-.4 3.7-1.2 5.2-6.1 11-12.4 22-18.6 32.9l.7 1.1c4.6-1.4 9.3-2.6 13.8-4.2a58 58 0 0 0 10.5-4.7c3.9-2.3 6.8-1.9 10 2.3l-14.6 9.8c-9 5.9-18.8 8-29.4 9.4-12.7 1.6-25.2 5.4-37.6 9-9.2 2.8-18 6.7-27.1 10-1.2.4-2.7.6-3.9.2-6.4-2.2-13.4-3.7-19-7.2-8.8-5.5-17.5-4.3-26.5-2.8-8.3 1.5-16.5 3.9-24.8 5.5-2.8.5-5.8.2-8.7 0-7.5-.7-15-2.3-22.3-1.8-5 .4-9.9 3.5-14.5 6-3.8 2-6.5 1.4-10.2-1.9 13.5-12.4 21.3-28.3 28.9-44.2L207 284c-3 2-6.1 3.8-8.6 6.2a102 102 0 0 1-35.6 23.3c-3.5 1.3-7.2 1.8-11.6 2.8.2-6.8 10-11 6.3-19l-14 26c-3-2.1-5.8-3.7-8-5.8-1-1-1.5-3.4-1-5 1.7-6.8 4.1-13.5 6-20.4 1.7-6.5 2.9-13.2 4.5-19.8 1.2-5 2.8-9.8 3.5-15l-7 12c-3.7-1.3-5.2-3.4-4-7.2 1.5-5.4 2.9-10.9 4.5-16.3a6.8 6.8 0 0 1 2.8-3.9l-1 8.7 1 .3 7.8-19.2 1.2.3-.8 9.7 1.2.3c1.6-5.8 2.7-11.8 4.8-17.4 2.2-6 5.1-11.8 7.7-17.7l1.8.7-.8 4.3c-4.6 14-9.2 27.3-13.4 40.7a51.8 51.8 0 0 0-2.3 27.1 113 113 0 0 0 3-14.3c.8-4.8 1-9.9 2.3-14.5 3-10 6.5-19.8 9.8-29.7 2.7-4.1 5.5-8.1 8-12.3 1.2-2 1.8-4.6 3.4-6.6-4.3 28.8-19.1 54.8-21.5 85.3 1.7-2.3 3.3-3.8 4-5.6 5.3-12.6 9.8-25.5 15.6-37.8 4.4-9.4 10.3-18 15.5-27l1.9.7-15.5 53.1.8.5c4.7-7.8 9.2-15.6 14-23.2 6.8-10.5 13.4-21 20.8-31 2.5-3.3 7.2-4.8 11-7.2l.9 1-5.5 20.2.8.5c4.3-5.5 8.7-10.7 12.6-16.4 2.3-3.4 4.5-4 8.5-1l-6.8 9.3 11.8 3.3 8.6-8.3c1.8 4.3 1 7.3-1.4 10.3a239 239 0 0 0-14.8 20.6c.8-.5 1.8-.8 2.5-1.5 6-5.5 11.6-11.5 17.9-16.6 8.4-6.9 17.4-13 26.5-19.7 0 13.6-9.7 23.9-12.5 37.2l19.4-16.1-3.8 14.3c2.3-.7 4-.7 5-1.6 6.4-5.5 12.5-11.2 18.8-16.8l2-1.8zm77.4 40 1.6-1.6-.7-.6c-.3.5-.6 1-1 2.1m-121.6-15.5.1.9c0-.3.2-.7-.1-1m-36.2 2.4c.1 0 .2.1 0 0m-17-20.2"/>
  <path fill="#7A6058" d="M405 284a46.7 46.7 0 0 1 22.4-29.4c-5 11.4-10 22.8-22 29.4z"/>
  <path fill="#754738" d="M167 220.8c-3.2 10.3-6.8 20-9.7 30-1.4 4.7-1.5 9.8-2.3 14.6a113 113 0 0 1-3 14.3 52 52 0 0 1 2.3-27.1c4.2-13.4 8.8-26.8 13.4-40.4 0 2.6-.3 5.4-.6 8.6z"/>
  <path fill="#70554D" d="m241 173 6-5.6 1.1.9c-2 2.9-4.2 5.7-6.5 8.8-.4-.3-.5-.7-.6-1.8zm-3 7-6.7 8-1-1c.8-3.6 2.5-6.5 7.3-7zm-23 5a8 8 0 0 1 2.5-3c.5 0 .8.2.8.2l-.3 2.9c-.4 1.2-.9 1.9-1.3 2.6a21 21 0 0 1-1.8-2.8zm-27.5 19.3c.5 0 .8.2 1.3.6-.4 1.9-1.1 3.6-1.8 5.2l-2-.8zm61-19.1c.5.1.8.4 1.3.9-.6 1.1-1.5 2-2.3 3l-1-.8 2-3zm-8.2-20.2c.4-.9 1.2-1.7 2-2.5l-.1 2.3c-.7.2-1.1.2-2 .2zm22.3 22.4c.8-.4 1.4-.4 2.1-.5l-.5 1.7c-.6-.3-1.2-.6-1.6-1.2m164.2 48.9c-.6.7-1.1 1-1.7 1.4l-.6-1.2c.8-.2 1.5-.4 2.3-.2m-149.8-42-3.1 1.5-1.3-1.5a15 15 0 0 1 3-1c.8.4 1.1.7 1.5 1zm-69-4-2 1c.1-.7.1-1.5.6-2 .8.4 1.1.7 1.5 1zm-5.9-22c.3-.4.7-.6 1.1-.8v1.3c-.6 0-.8-.1-1-.5z"/>
  <path fill="#966B50" d="M160.3 206.9c0-.5 0-1.2.5-1.9.1.6-.1 1.1-.5 1.9"/>
  <path fill="#A47B64" d="M239 177.3c0-.8 0-1.6.6-2.3.4 0 .6.3.6.3 0 .3-.1.7-.5 1.4l-.8.6z"/>
  <path fill="#70554D" d="M238.5 184c.3.1.3.4.4.9-.4.4-.8.5-1.2.6.2-.5.4-1 .8-1.5m2.3-4.8c.1.4 0 1-.5 1.7 0-.4.1-1 .5-1.7M239 178c-.2.6-.3 1.1-.8 1.8l-.2.2c.1-.6.3-1.1.7-1.8z"/>
  <path fill="#A47B64" d="M287.3 196.1c0-.2 0-.7.5-1.1 0 .3-.2.6-.5 1.1M240.7 173c.3.5.3 1 .3 2 0 .3-.4.3-.6.3s-.4-.3-.6-.4c.2-.7.4-1.2 1-1.8z"/>
  <path fill="#7A6058" d="m405 284-.2.4v-.4z"/>
  <path fill="#A47B64" d="M277.1 194c-.4 0-.7-.3-1.2-.8 0-.3.1-.3.6-.4.3-.1.5.2.6.3v1z"/>
  <path fill="#966B50" d="M156.2 212c-.2-.2-.2-.3-.3-.8.2-.2.4-.2 1-.2 0 .3-.2.5-.7 1"/>
  <path fill="#33231F" d="m316 227 .2-.4v.3z"/>
  <path fill="#A47B64" d="m428.4 234.4.2.2s-.3-.1-.2-.2"/>
  <path fill="#70554D" d="M239.6 182.1c.1.2 0 .4-.4.7-.1-.1 0-.4.4-.7m8.6-1c-.2-.2.2-.3.5-.2l.5.3v.6c-.4 0-.6-.2-1-.7m-9.2-3.6c0-.3.2-.4.7-.5.2.2 0 .5-.5.9-.2.1-.2 0-.2 0zm1.2 7.5c0-.3.1-.5.6-.7 0 .2-.1.4-.6.6z"/>
  <path fill="#A47B64" d="m266.4 185.5.2-.1s-.1.2-.2.1M208 190c-.3 0-.6-.3-1.1-.8.2 0 .6.2 1 .7z"/>
  <path fill="#402721" d="M437.9 381c-3.8 0-7.1.2-10.4 0-1.2-.2-2.2-1.4-3.3-2 1-.7 1.9-1.7 3-2l9.1-1.3c-.7-4.3 2-3.6 4.8-3.6 10.2.2 20.5.2 30.7 0 5.6 0 11.2-.5 17 .3-16.4 5.6-33.5 6.8-50.9 8.6"/>
  <path fill="#96785E" d="M223 430c-.7-.4-1.3-.8-2-1.8-.5-1.4-.6-2.4-1.2-2.8-8.2-6.2-9-14.2-6.1-23.3v-1.5c.5-.6 1-1.2 2-1.6l4 5.1c1.5 8 3 16 4.3 24.6-.4.7-.7 1-1 1.3"/>
  <path fill="#70554D" d="M213.3 400.7c.3.4.5 1 .4 1.4-3 9-2.1 17.1 6 23.3.7.4.8 1.4 1.1 2.5-9.6-3.7-11.3-12.2-11.6-21.1 0-2 2.5-4 4.1-6z"/>
  <path fill="#6B4E46" d="M219.8 403.7a27.8 27.8 0 0 1-3.8-4.8 39 39 0 0 1 3.6-5l1.6.7z"/>
  <path fill="#5F453D" d="M227.5 397.8c2.9 3.5 1.5 6.3-2.5 8.5.8-2.8 1.5-5.5 2.5-8.5"/>
  <path fill="#70554D" d="M223.1 430.3a2 2 0 0 1 1-1.2c.8.6 1.3 1.4 1.8 2.1l-.5.6z"/>
  <path fill="#A47B64" d="M351.7 529.2a47 47 0 0 1-8.7.5 47 47 0 0 1 8.7-.5m-27.8.2c-.7.5-1.6.7-2.8.8.7-.5 1.6-.7 2.8-.8"/>
  <path fill="#7A6D6A" d="m479.4 427.5-5.7 1.8c4-11.5 6.8-22.8 2.1-35 4.7.5 7.8 1.8 8.9 5.5 1.7 6 6.2 11.7 1.6 18.3-2.1 3-4.4 6.1-7 9.4z"/>
  <path fill="#443939" d="M417.6 418.1c-2.2 2-3.7 1.9-3.5-1 .2-3.8.8-7.5 1.3-11.3l1.3-.1c.3 4 .7 8 .9 12.4"/>
  <path fill="#70554D" d="m217.8 181.9 3.5-5.9 1.5 1a48 48 0 0 1-4.3 5c-.2.2-.5 0-.7-.1m31.1-1c.3-.5.7-1 1.2-1.3l-.6 1.5c-.3.1-.5-.1-.6-.2"/>
  <path fill="#C7A897" d="m281 149-.2.4v-.3z"/>
  <path fill="#5F453D" d="M393.4 266.7c.3-.8.6-1.4 1-1.9l.6.6c-.5.5-1 1-1.6 1.3m-121.5-15.3v.9c-.1-.3-.2-.6 0-1zm-53.4-17.9"/>
</svg>