<svg xmlns="http://www.w3.org/2000/svg" xml:space="preserve" viewBox="28 91 645 919">
  <path fill="#1C1819" d="m626 390 6 33 2 26-2 25-2 11-9 23-2 6-1 1-1 1-13 9-15 4-12-4c-1-4-5-6-10-4l-10 2-3 3-7 23-5 9-7 16-5 5-19 16c-5 3-6 6-2 10l20 20 4-2 7 13c1 2 1 4 3 5l-2-11c-1-5-2-11-1-16 2-8 7-15 15-19l10-3c6 0 13-3 19 3l2 5c2 3 5 7 5 11-1 8 2 14 7 21 5 6 4 6 10 1 5-4 10-6 16-5h8v-6l3-2c11 15 16 32 19 50l8 61 7 49 3 35c2 12-2 22-7 32-3 6-9 9-14 12s-5 4 0 7c8 6 12 14 12 24 0 11 1 21-5 31-6 8-14 16-25 17l-18 2c-10-1-18-6-26-12-9-8-15-18-16-30 0-8 1-16 6-23l5-8v-4l-12-8-3 9a87 87 0 0 1-49 68l-5 3c3 5 8 10 10 15 9 18 7 35-5 51-7 8-16 10-27 9l-28-2c-11-1-22-5-29-13-5-5-8-13-11-20l-2-13c0-1-2-3-4-3l-35 2h-5l-41 2-36-3c-7 0-8 0-9 7-1 9-2 18-9 25l-10 8c-13 6-26 9-41 6l-21-3c-10-2-17-7-23-16-9-15-8-30 0-45l7-10-4-1c-6-2-12-3-17-6-13-7-23-16-30-29-7-12-12-26-15-40l-1-3-17 12 7 13c10 24-2 54-29 59-15 3-31 3-44-8a46 46 0 0 1-6-57c2-3 6-5 9-7 2-2 3-3 0-5-14-8-20-21-21-36-1-11 1-22 2-33l6-50 3-27 5-40 5-26h3l30-36c1-2 3-5-1-7v-3c11-6 21-12 34-13l22 6c13 5 26 9 31 23l-1 6v1l25-24-15-13-3-2c-1-6-8-8-11-13l-8-16-4-7-3-9-3-9c-2-6-6-5-10-4l-4-1h-7l-5 1-4 8c-21 2-38-11-43-26-5-12-7-24-9-36l-2-40 3-24 1 11h1l6-12c2-12 8-20 16-28l8-12h1v-1l-1 1c-9 4-17 7-22 15l-4 3c2-6 5-11 11-14l19-7c2-1 3-2 3-4l-2-5-1-8 16 2a116 116 0 0 1-2 13v2l-1 8 6-3c10-4 16 0 16 10v6l3 4 1 2v2l3 26 1 47c0 11 3 22 5 32 1 2 3 4 5 4 3 0 4 1 4 4 0 8 3 11 11 11l6 1c4 5 9 5 14 6 6 1 11 6 15 9 4 2 7 3 11 3 2-1 5 1 7 2l15 7 28 9 6 1c10 1 19 3 28 9 5 3 12 4 18 4 3 1 6 1 8 4 1 2 2 4 5 2 4-2 8-1 11 1 7 8 14 4 21 0l1-1 2 1 7 3c13 2 25 0 37-7 5-4 12-6 19-8l16-8 19-9 25-10c8-5 17-6 25-9 4-2 10-1 11-7l4-3 5-2c5-5 8-11 14-15 2-11 6-22 7-33 1-13-1-26-1-38l-1-4-1-21-1-1v-9a586 586 0 0 0-1-25c4-1 7-4 10-3 2 0 4 4 6 6l1 1 1 23v4h2a3715 3715 0 0 1 1-36c4-2 0-5 1-8l-1-4c-6-7-6-16-6-24l1-6 1 4 4 14 4 3c4 1 10-1 12 1s1 8 1 13l1 15 1 31c9 0 14-6 20-10 3-1 6-2 8-1 5 1 8 0 10-4M208 641l-11-18-3 2v3l1 3a29 29 0 0 1 1 4l11 18 1-1v-11m372-226 2 10h1l1-21c0-5-1-6-6-5v-15c0-9 0-19 3-29v-4h-6l-1 6v10c2 6 1 12-4 18l1 27v6l5 14h1l2-12v-2l1-3M214 710h-2c2 5 5 9 11 8l3 1c12 0 24 1 36-2l1-3-12-3-37-1m224 5c2 4 5 6 10 6l30 1 13 1-1-4 1-1c-4-3-8-4-13-4l-38-1-2 2M105 433v2l3 15h2c3-6 2-12 2-19v-51l-3-6c-6 19-4 38-4 58v1m380 211 7-11-22 14-16 9c-7 5-15 8-24 6l-11-1-40 1c-13 1-26 3-32 17-1 2-2 5-1 7l7 19c6 9 12 18 24 21 9 3 17 1 23-4 9-8 16-17 23-26s13-19 23-26l7-2 39 1c11 0 20-3 25-13 3-6 3-12 3-19-8 2-15 4-19 12l-5 6c-1 2-3 3-5 3l-10-2 4-12M210 804l11 1 41 4 48 2 52 1 88-1h29l19-1h-31l-57 1-52-1-32-1-69-2-20-1-29-3-28-3-22-2v2l52 4m43 19 24 2 60 2h114l-4-1-111-1a2146 2146 0 0 1-108-5l-52-5-11-1 6 2a2963 2963 0 0 0 82 7m292-49-2-10-3-3-1 1v29l7 3-1-20m-46-142-5 7c-5 4-4 10-3 15 7-8 16-14 13-28l-5 6M159 763c-1 8-3 16-2 24l7-1v-31c-3 1-3 1-5 8m-50-307 1 11 10-6c-3-4-5-8-10-5h-1m464-11c2 2 3 6 5 6 3 1 6-1 8-2v-1l-13-3m-467-83 2 4h1l3-9-2-3c-5-1-6 1-4 8m2 270c6-9 6-11 1-15l-1 15m-7-243v-5h-2v29l2-24m373 437h9v-1h-29v1h20z"/>
  <path fill="#DCC6B9" d="M549 404v1l1 1 1 21-4-2-1 4c-2 8-5 14-13 17-11 5-23 4-34 6-9 2-19 5-28 9-10 4-19 11-31 11l-8 2c-11 5-22 11-34 15-4 1-9-1-13-2v-8l1-21-5 2c-9 3-18 4-28 3-9-2-12-8-17-14l-1-3c-1-8 0-16 5-23 3-3 5-5 9-6 7-1 14-1 19 4 3 3 7 5 11 6l44 4c8 3 15 5 23 6 17 2 31-2 44-15l7-5 22-9c15-6 25-22 24-38l-3-4c-6-5-13-7-21-6l-10-2-21-2-5 2h-9l-10 1-15 1-2-4-15-4-13-3-19-4c-3-1-4-3-2-6l8-6 23-19 19-26 11-12c9-4 17-15 17-25l2-11 3-18 1-1 1-3-4 1c1-8 1-15 3-21s0-10-5-13c-7-5-12-11-11-20l-1-3-1 4c-2 1 0 7-5 4h-4l-7 4-3-7-1-4h-6l-4 2-8-5c-1-1 1-4 1-7-1-2 2-5-2-7h-2l4-4 2-1c-2-6-6-9-12-6l-23 10-3-3-3-9-10 8h-2c0-4-1-8 1-9 4-5 10-9 15-13l4-4c6 1 13 0 16 3 7 6 14 9 23 9 2 2-1 6 4 5l3 1 4 3c5-1 10 2 14-1l2-1-3-1-10-5c-10-6-19-10-30-12l-35-7-30-1-19 1h-4l-18 2c-4 0-7 2-10 3l-7 1-47 15-20 11-9 5-29 22-25 26-3 4h-2l-2-1 10-14 8-9 7-4 14-13 13-10 12-8 11-6c5-2 8-5 13-6l52-17 7-2 31-6 6-5-32 3-8 2-11 5h-2l-5 1v-1l10-4-1-1-17 2c11-5 23-9 36-9l34-4 19 1a668 668 0 0 1 83 24c6 2 13 5 18 12 2 3 7 6 11 9 0 4 1 7 4 8l11 2 6 4c9 4 13 12 19 19l10 12 12 23 8 15 1 1 1 5c9 23 16 47 20 72 0 3 1 7-3 8l-1-9-5-24c-5-19-10-38-19-56l-1-1-2 5-8-12-3-7c-4-7-7-16-15-21l-2-4-6-7-26-22h-4l2 4 33 26 3 4 2 4c1 3 7 5 3 9-4 3-6-3-8-5l-11-14-1 10h-1l-3-7c0-5-1-10-7-11l3 11 6 18 20 39c5 11 3 24 9 35l4 10 9 18 7 39 3 12-1 15 1 6-1 7v10l2 8-1 7 1 1z"/>
  <path fill="#AE8772" d="m277 104 17-2 1 1-10 4v1h5l8 2-51 17c-5 1-8 4-13 6l-2-2-15 8v1l5-1-11 7c0-3-1-3-3-1l-11 9v3l-13 13-7 4 7-12 16-18c2-2 3-4-1-4 9-6 17-12 27-17l41-17 10-2z"/>
  <path fill="#AF8780" d="m635 620-3 2v6h-8c-6-1-11 1-16 5-6 5-5 5-10-1-5-7-8-13-7-21 0-4-3-8-5-11l-2-5c4 2 9 3 12 7 6 7 13 11 22 12 5 1 6 0 7-4v-3l10 13z"/>
  <path fill="#A17D69" d="M625 390c-1 4-4 5-9 4-2-1-5 0-8 1-6 4-11 10-20 10v-31l15 5c6 2 12-2 13-9l9 20z"/>
  <path fill="#D0B8B2" d="M625 607v3c-1 4-2 5-7 4-9-1-16-5-22-12-3-4-8-5-12-8-6-5-13-2-19-2l-9 3c6-6 14-7 22-9 16-4 27 5 39 13l8 8z"/>
  <path fill="#A17D69" d="M586 358c0-4 1-10-1-12s-8 0-12-1l-4-3-4-14-1-4-1 5-1-6c1-1 2-3 4-3 5 0 14 7 16 13l3 10h2v-29l3 3 1 23-3 11-1 4 15 4c5 2 11 5 14 11h-1l-3-2c-7-7-16-10-26-10z"/>
  <path fill="#C3BBB8" d="M95 334v-7c2-7 2-10 9-10l4-1 2 1 3 1 5 9v8l-2 11-17-1v-15h-1l-2 9h-1v-5z"/>
  <path fill="#997764" d="M567 307c4-2 3-6 3-9-4-25-11-49-20-72l-1-5 5 7a2281 2281 0 0 1 22 66l1 10h-5l-1 6c0 3-1 4-4 4v-7z"/>
  <path fill="#A47959" d="m110 317-2-1 3-12 7-22 7-19 5-7-6 16c-2 5 0 7 4 8v5l-1 2c-2 12-7 22-17 30z"/>
  <path fill="#756048" d="m70 387 4-3c5-8 13-11 22-15l-8 12c-8 8-14 16-16 28l-6 12h-1v-19l2-11 3-4zm11 218c4 2 2 5 1 7l-30 36h-2v-3l10-20 1-2 7-8 12-10h1z"/>
  <path fill="#B7AEAB" d="M567 314c3 0 4-1 4-4l1-6h4l3 7 8 3v29h-2l-3-10c-2-6-11-13-16-13l-4 2c-2-3 0-5 3-6l2-2z"/>
  <path fill="#A8826E" d="m168 183-9 14-10 13-11 17v-4l1-1 11-20 3-4c4-3 6-6 6-10 1-5 2-9 5-13l14-14h1l-1 4-10 12c-2 2-6 5 0 6z"/>
  <path fill="#7B5143" d="M169 183c-7-1-3-4-1-6l10-12 1-4 1-1-1 1h-2l-2-1 3-3 1-1c5 0 7-2 8-6l7-6 2-2 3-2c4 0 3 2 1 4l-16 18-7 12-8 9z"/>
  <path fill="#533324" d="m175 160 2 1-13 14c-3 4-4 8-5 13 0 4-2 7-6 10l-3 4-11 20v-4c4-9 7-18 12-26 3-7 8-14 13-20l10-11 1-1z"/>
  <path fill="#947C75" d="m533 623-4 2-20-20c-4-4-3-7 2-10l14 16 8 12z"/>
  <path fill="#A0877F" d="M168 617c-5-13-18-17-31-22l-21-6 13-2 23 13 1-1-1-6c6 5 13 10 15 19l1 5z"/>
  <path fill="#A47959" d="M95 334v5h1l2-9h1v15l17 1v5l-16-2 1 8c-7-6-10-14-6-23z"/>
  <path fill="#D1D7DF" d="m152 593 1 6-1 1-23-13c8 0 16 2 23 6z"/>
  <path fill="#AF8780" d="m130 256-5 7-7 19 3-13 7-20 4-6 1 1a150 150 0 0 1-3 12z"/>
  <path fill="#533324" d="m132 243-4 5-1-2 11-23v4l-6 16z"/>
  <path fill="#8A6B5B" d="m493 147-11-2c-3-1-4-4-4-8l15 10z"/>
  <path fill="#AE8772" d="m619 514 2-6 9-22c0 10-3 20-11 28z"/>
  <path fill="#A0877F" d="M116 536c0-3 1-6 3-8l5-1-2 3c1 6-2 6-6 6z"/>
  <path fill="#908281" d="m577 526 12 3-7 2c-3 1-6-1-5-5zm28-1z"/>
  <path fill="#1C1819" d="m80 604-11 11c1-5 5-9 11-11z"/>
  <path fill="#C3BBB8" d="m588 351 3-11c3 4-1 7-3 11z"/>
  <path fill="#AE8772" d="M187 150c-1 4-3 6-8 6l8-6z"/>
  <path fill="#1C1819" d="M67 391z"/>
  <path fill="#A27D68" d="m481 222-3 18-2 11c0 10-8 21-17 25l-11 12-19 26-23 19-8 6c-2 3-1 5 2 6l19 4 13 3 15 4 2 4-4 4-44 19c-4 1-7 5-11 9 9 6 15 13 17 22 1 3 4 5 6 7l10 10-44-4c-4-1-8-3-11-6-5-5-12-5-19-4-4 1-6 3-9 6-5 7-6 15-5 23l1 3c5 6 8 12 17 14 10 1 19 0 28-3l5-2-1 21v8c4 1 9 3 13 2 12-4 23-10 34-15l8-2c12 0 21-7 31-11 9-4 19-7 28-9 11-2 23-1 34-6 8-3 11-9 13-17l1-4 4 3 1 3c0 12 2 25 1 38-1 11-5 22-7 33-6 4-9 10-14 15l-5 2-4 3c-1 6-7 5-11 7-8 3-17 4-25 9l-25 10-19 9-16 8c-7 2-14 4-19 8-12 7-24 9-37 7l-7-4h-2l-1 1c-7 4-14 8-21 0-3-2-7-3-11-1-3 2-4 0-5-2-2-3-5-3-8-4-6 0-13-1-18-4-9-6-18-8-28-9l-6-1-28-9-15-7c-2-1-5-3-7-2-4 0-7-1-11-3-4-3-9-8-15-9-5-1-10-1-14-6l-6-1c-8 0-11-3-11-11 0-3-1-4-4-4-2 0-4-2-5-4-2-10-5-21-5-32l-1-47-2-26 3-3 1-31v-31l2-4c12-5 24-9 36-10l2 1c-1 5-3 7-6 10l-9 7v2l6 1 11-2 23-4 29-1 15-2 21 2c7 1 14 0 21 2 11 3 21 1 30-3 18-8 37-13 56-15 18-1 33-6 46-17 9-8 15-17 19-27l-3-2c2-11 7-20 7-31l-24 26-1 1c-6 8-11 16-20 20l-1-2 7-13 7-11 7-26 1-6h-1l-5 5h-2l-14 2 3-19 1-1-1-2-1 3c-5 10-11 18-19 24-3 2-7 3-11 3l-3-5-4-19h-2l-3 3h-2v-5h-2l-12 6h-5v-4l5-17h-2l-6 6c-1 1-3 3-5 2-3-1-5 1-7 3l-4 7h-2v-7h-2l-3 1-1-1 3-19v-2l-2 3c-2 4-4 10-7 13-4 3-10 5-15 6l-1-1 10-18v-6l-2 1-22 18c-7 6-7 6-11-2l1-5 8-12-1-2-2-3-2 1-12 13-1-1 12-21c2-4 4-8 3-13l-1-1-4 11-9 10-2 1c-5-2-7 0-9 3h-2l-1 1-18 8v-1l2-6 11-16h-2l-8 4-12 12-1 1-2 3-1-2 3-8h-2l-10 12h-2l4-11h-2c-11 4-14 15-19 24l-2-2 5-12 8-13h-6v-5h-1l-24 30-6-3 1-1v-2l3-4 25-26 29-22 9-5h5l28-12 30-9-9 6h1a870 870 0 0 0 6-1l5 2 6-2 1 1-7 10v3l-18 18 1 2c9-5 17-11 22-20v-3l15-11 1 1-9 11c14-7 26-15 42-17l-13 9 2 2 28-16-38 1-18 2-11-1 4-3c3-1 6-3 10-3l18-1-1 1h27l1-1-3-2 29 1 35 7c11 2 20 6 30 12l11 5v2c-4 3-9 0-14 0l-4-3h-4l1-5h-4c-9 0-16-3-23-9-3-3-10-2-16-3-22-1-40 5-54 20l10-4c10-7 22-12 34-13 2-1 4 0 6 1-5 4-11 8-15 13-2 1-1 5-1 9h2l10-8 4 9-1 6 3-2 23-11c6-3 10 0 12 6l-2 1-4 4v9l1 1 1-10c4 2 1 5 2 7 0 3-2 6-1 7l8 5 4-2h6l1 4 3 7 7-4h4c5 3 3-3 5-5h2c-1 9 4 15 11 20 5 3 7 7 5 13s-2 13-3 21l-3 9h1l4-6m-133-25h2v-2l-2 2m53 333 6-3v-2c-38-4-76-4-113 2 4 2 8 4 14 4l30-3 3 2-6 1a441 441 0 0 0 66-1m34-11v-1c-3-9-11-11-19-12l-2 6c-5 0-9-2-12-6l-4-4c-4-4-13-5-15-1-3 4-6 4-9 1l-3-2-4-2c-1 1-3 3-3 5l2 8c4-7 8-4 12-2l9 4 9 2c6 3 12 3 19 2h13l7 2m-180-81c13-2 24-6 34-16l4-7c0-9 2-16 12-19 2 0 4-3 4-4 0-3-1-7-4-8l-32-13-42-10-30-3-4 1c-1 4-6 3-8 5l-5 4v1l29 9-11 3c-3 1-4 2-4 5-1 10 2 19 6 27 5 11 13 20 25 24l8 2 16 1 2-2m30 68c-3 0-7 0-11 2-3 0-5 3-8 4l10 6h1c11 0 21 0 32-2l32-6c4-1 6-4 4-8-3-3-8-7-12-8-4 0-8 2-12 4l-6 1-18 4-12 3m79-27-23 1c-3 0-5 2-4 4l3 4c8 3 15 4 23 1 6-3 7-4 7-11l-6 1m0 72 7-4c-13-6-33-5-40 2l12 3 21-1m1-412-3 9h1l10-19-2-1-6 11m-92-5 9-5-2-2-7 7m154 89v2-2m-53-97h-1 1m-83 15s0-1 0 0m-19-5s-1-1 0 0z"/>
  <path fill="#535D6C" d="m485 644-4 12 10 2c2 0 4-1 5-3l5-6c4-8 11-10 19-12 0 7 0 13-3 19-5 10-14 13-25 13l-39-1-7 2c-10 7-16 17-23 26s-14 18-23 26c-6 5-14 7-23 4-12-3-18-12-24-21l-7-19c-1-2 0-5 1-7 6-14 19-16 32-17l40-1 11 1c9 2 17-1 24-6l16-9 22-14-7 11z"/>
  <path fill="#835546" d="m210 804-52-4v-2l22 2 28 3 29 3 20 1 69 2 32 1 52 1 57-1h31l-19 1h-29l-88 1-52-1-48-2-41-4-11-1z"/>
  <path fill="#C6C7CB" d="M105 431c0-19-2-38 4-57l3 6-1 51-6 3v-3z"/>
  <path fill="#D1D7DF" d="M586 359c10-1 19 2 26 9l3 2c0 7-6 11-12 9l-15-5-2-15z"/>
  <path fill="#7B5143" d="m253 823-48-4a2963 2963 0 0 1-40-5l11 1 52 5a1275 1275 0 0 0 108 5l111 1 4 1H337l-60-2-24-2z"/>
  <path fill="#E7D5C1" d="m438 715 2-2 38 1c5 0 9 1 13 4l-1 1-31-1c-7 0-14 1-21-3z"/>
  <path fill="#A27D68" d="m115 366 11-2c7-1 11 1 12 8l2 1 1 20h-2l-1-3-3-3v-6c0-10-6-14-16-10l-6 3 1-8h1m20 4s0 1 0 0z"/>
  <path fill="#C8A678" d="m545 774 1 20-7-3v-29l1-1 3 3 2 10z"/>
  <path fill="#CDB5A1" d="m499 632 5-6c3 14-6 20-13 28-1-5-2-11 3-15l5-7z"/>
  <path fill="#E1CB9E" d="m215 710 36 1c4 0 8 2 11 4l-43-1c-2 0-3-3-4-4z"/>
  <path fill="#D4A761" d="M159 762c2-6 2-6 5-7v31l-7 1c-1-8 1-16 2-25z"/>
  <path fill="#CD995C" d="M215 710c1 1 2 4 4 4l43 1v2c-12 3-24 2-36 2l-3-1c-6 1-9-3-11-8h3z"/>
  <path fill="#9B989B" d="M570 384c5-5 6-11 4-17v-11h7c-3 9-3 19-3 28l-1 12-5-10-2-2z"/>
  <path fill="#CD995C" d="M438 715c7 4 14 3 21 3l30 1 2 4-13-1-30-1c-5 0-8-2-10-6z"/>
  <path fill="#D1D7DF" d="m572 387 5 9 1 4 1 15v5h-1l-7-3v-18l1-12z"/>
  <path fill="#A17D69" d="m547 365 1 2 10-7 10 6-1 8h-3c-2-2-4-6-6-6-3-1-6 2-10 3l-1-6z"/>
  <path fill="#535D6C" d="m579 415-1-15c5-2 6-1 6 4l-1 21h-1l-3-10z"/>
  <path fill="#CD995C" d="m194 624 3-1 11 19a141 141 0 0 1-12-9l-1-3v-3l-1-3z"/>
  <path fill="#D4A761" d="m196 634 11 8 1 10-1 1-11-19z"/>
  <path fill="#908281" d="M109 456h1c5-3 7 1 10 5l-10 6-1-11zm-4-22 6-2c1 6 2 12-1 18h-2l-3-16z"/>
  <path fill="#382825" d="M121 338c1 7-2 14-6 21l1-8v-5l2-11v-6l1-1 2 10z"/>
  <path fill="#B7AEAB" d="m574 445 12 3v1c-2 1-5 3-8 2-2 0-3-4-4-6z"/>
  <path fill="#C3BBB8" d="m569 366-11-6 12-2c-1 3 3 6-1 8z"/>
  <path fill="#B7AEAB" d="m572 386-1 13v12a600 600 0 0 1 1-25zm-1 31 7 3-1 12h-1l-5-15z"/>
  <path fill="#535D6C" d="m108 632 1-15c5 4 5 6-1 15z"/>
  <path fill="#8A6B5B" d="m565 375 1-1 2 28h-2v-4l-1-23z"/>
  <path fill="#535D6C" d="M101 389a126359 126359 0 0 0-2 24v-29h2v5z"/>
  <path fill="#A17D69" d="m549 396-2-8 1-10 1 18z"/>
  <path fill="#7B5143" d="M474 826h-20v-1h29v1h-9z"/>
  <path fill="#8A6B5B" d="M139 393h4l-3 2-1-2zm-4-6 3 3-3-3zm227 189h2-2z"/>
  <path fill="#756048" d="m96 369 1-1v1h-1z"/>
  <path fill="#8A6B5B" d="M115 366h-1v-2l1 2z"/>
  <path fill="#908281" d="M105 431v1-1z"/>
  <path fill="#535D6C" d="M579 420v-1 1z"/>
  <path fill="#45302A" d="m143 392-2 1-1-20c2-10-1-19-3-28-1-6-4-12-4-17 0-7-3-11-6-15l-2 3-12 2-3-1c10-8 15-18 17-30l1-2v-5c-4-1-6-3-4-8a375 375 0 0 0 6-18l1-2 3-9 27-45h1l1 2-1 1-2 3-3 6 1 1 3-6h2v1l-5 14h1l9-16 24-30h1v5h6l-8 13-5 12 2 2c5-9 8-20 19-24h2a1194 1194 0 0 1-12 29h2l8-18 10-12h2l-3 8-8 14h1l8-12 2-3 1-1 12-12 8-4h1l-10 16-3 6v1l-2 4 2-1 1-2v-1l18-8v3l3-4c2-3 4-5 9-3l2-1 9-10 1 3a4912 4912 0 0 1-14 25l2 1 2-4 12-13 2-1 2 3 1 2-8 12-1 5c4 8 4 8 11 2l22-18 2-1v6l-10 18-1 3 1 1 1-2c5-2 11-4 15-7 3-3 5-9 7-14h2l-3 19v2h1l3-2h2a943 943 0 0 1 2 7l4-7c2-2 4-4 7-3 2 1 4-1 5-2l7-6-4 17v4h5l12-6h2v5l1 2 1-2 3-3h2l4 19 3 5c4 0 8-1 11-3 8-6 14-14 19-24h1l-3 19a129 129 0 0 1 16-2l5-5h1l-1 6-7 26-7 11-7 14-2 4 2-1 1-2c9-4 14-12 20-20l1-1 24-26c0 11-5 20-7 31l3 2c-4 10-10 19-19 27a77 77 0 0 1-46 17c-19 2-38 7-56 15-9 4-19 6-30 3-7-2-14-1-21-2l-21-2-15 2-29 1-23 4-11 2-6-1v-2l9-7c3-3 5-5 6-10l-2-1c-12 1-24 5-36 10l-2 4v31l-1 31m16-156c-2 8-6 15-6 24l26-66c-10 13-16 26-20 42m-8-17-8 15c-3 4-4 10-3 16l17-37-2-1-4 7m40-38v1-1m-6 25s1 0 0 0z"/>
  <path fill="#382825" d="m423 431-10-10c-2-2-5-4-6-7-2-9-8-16-17-22 4-4 7-8 11-9l44-19h2l1-1 26-5h10l7 1-2 3 3 2h8l7 3v2l-31 9 10 2c6 0 13 9 12 15l-7 22-2 5a48 48 0 0 1-43 15c-8-1-15-3-23-6m51-2c7-5 15-9 13-21-1-5-3-7-9-7 1 9-1 19-5 28h1z"/>
  <path fill="#A47E6A" d="m566 297-3-8-7 4v-6c0-4 0-8-2-11-3-3-3-7-4-10l-2-13-5-5-2 5v12l-2-1-4-35-5 14c-2 7-2 14 0 22l5 17 2 16-8-17-4-10c-6-11-4-24-9-35l-20-39c-3-6-4-12-5-18h3l3 7h1l1-10 11 14c2 2 4 8 8 5 4-4-2-6-3-9l-2-4v-1c8 5 11 14 15 21l3 7 8 12 2-5 1 1c9 18 14 37 19 56l5 24z"/>
  <path fill="#A77C68" d="m490 422 1-5 7-22c1-6-6-15-12-15l-10-2 31-9v-2l-7-3h-8l-3-2 2-3-7-1 4-2 21 2 10 2c8-1 15 1 21 6l3 4c1 16-9 32-24 38l-22 9-7 5z"/>
  <path fill="#5E443C" d="m538 299-3-17-5-17c-2-8-2-15 0-22l5-14 4 35 2 1v-12l2-5 5 5 2 13c1 3 1 7 4 10 2 3 2 7 2 11v7l-3 10-4 35-1 10-3-11-7-39z"/>
  <path fill="#75615E" d="m292 119-30 10-28 12h-4l19-11 47-15 7-1-4 3-4 1-1 1h-2z"/>
  <path fill="#AE8772" d="m343 97-6 5-31 6-5-1h-9l11-5 8-2 32-3z"/>
  <path fill="#D0B8B2" d="M392 119c-2-1-4-2-6-1-12 1-24 6-34 13l-10 4c14-15 32-21 54-20l-4 4z"/>
  <path fill="#CDB5A1" d="m161 198-27 45h-2l6-15a677 677 0 0 1 21-31l2 1z"/>
  <path fill="#AE8772" d="m510 178-33-26-2-4h4l26 22 6 7-1 1z"/>
  <path fill="#654A43" d="m354 108 4 2-1 1h-27l1-1h3l1-1 19-1z"/>
  <path fill="#8A6B5B" d="M198 157c-1-1-2-2-1-3l11-9c2-2 3-2 3 1l-13 11z"/>
  <path fill="#D0B8B2" d="M447 364h-1c0-2 1-3 3-4l15-1 10-1a670 670 0 0 1-27 6z"/>
  <path fill="#8A6B5B" d="m223 139-6 1v-1l15-8 2 2-11 6z"/>
  <path fill="#654A43" d="M494 179h-3l-4-11c6 1 7 6 7 11z"/>
  <path fill="#8A6B5B" d="M292 107h9l5 1-7 2-9-2 2-1z"/>
  <path fill="#D0B8B2" d="m481 222-4 6h-1l3-9 4-1-1 3-1 1zm-56-76-1 10-1-1v-9h2zm10-19h4l-1 5c-4 1-1-3-3-5zm7 6 3 2-3-2zm-48 12-3 3 1-6 2 3zm72 20h-2l1-3 1 3z"/>
  <path fill="#A47E6A" d="m510 178 1-1 2 4-3-3z"/>
  <path fill="#D0B8B2" d="M460 135v-2l2 1-2 1zm-1 35h-4 4zm-32-28 2-1-2 1zm-49-1h-2 2z"/>
  <path fill="#8A6B5B" d="M163 200v-2c0-1 0 0 0 0v2z"/>
  <path fill="#A27D68" d="m481 222 1-1-1 1zM335 109l-1 1 1-1z"/>
  <path fill="#AE8772" d="M343 97z"/>
  <path fill="#A17D69" d="m113 318 11-2v6l-3 16-2-11-6-9zm5 11v6-6z"/>
  <path fill="#3A2521" d="m237 438-8-1c-12-4-20-13-25-24-4-8-7-17-6-27 0-3 1-4 4-5l11-3-29-9v-1l5-4c2-2 7-1 8-5l4-1 30 3 42 10 32 13c3 1 4 5 4 8 0 1-2 4-4 4-10 3-12 10-12 19l-4 7a57 57 0 0 1-35 16h-17m-25-30c-2 8 5 20 14 21l-1-2c-4-8-6-17-5-26v-1l-2-3-3 2-3 9z"/>
  <path fill="#63453A" d="m286 506 11-3 18-4 6-1c4-2 8-4 12-4 4 1 9 5 12 8 2 4 0 7-4 8l-32 6c-11 2-21 2-32 2h-1l-10-6c3-1 5-4 8-4 4-2 8-2 12-2z"/>
  <path fill="#C1A9A8" d="M295 118h15l18-2 38-1-28 16-2-2 13-9c-16 2-28 10-42 17l9-11-1-1a6952 6952 0 0 0-20 14v-3l7-10-1-1-6 2-5-2h1s0-1 0 0h-1l-6 1h-1l9-6 2-1 1-1z"/>
  <path fill="#654A43" d="m435 519-7-2h-13c-7 1-13 1-19-2l-9-2-9-4c-4-2-8-5-12 2l-2-8c0-2 2-4 3-5l4 2 3 2c3 3 6 3 9-1 2-4 11-3 15 1l4 4c3 4 7 6 12 6l2-6c8 1 16 3 19 13z"/>
  <path fill="#613226" d="m342 529-4-1-30 3c-6 0-10-2-14-4 37-6 75-6 113-2v2l-6 3a101 101 0 0 1-17-2h-17l-20 1h-5z"/>
  <path fill="#764132" d="m365 479 5-1c0 7-1 8-7 11-8 3-15 2-23-1l-3-4c-1-2 1-4 4-4l24-1z"/>
  <path fill="#7E4A3A" d="m363 551-20 1-12-3c7-7 27-8 40-2l-8 4z"/>
  <path fill="#CDB5A1" d="M367 529h20l14 1 2 1a441 441 0 0 1-55-1c7 2 13 1 19-1z"/>
  <path fill="#8A6B5B" d="m295 139 5-3v3c-5 9-13 15-22 20l-1-2 18-18zm-135 65 2-3 6 3-9 16h-1l5-15h-2l-1-1z"/>
  <path fill="#9B989B" d="M365 139a582 582 0 0 1 8-10l-10 19h-1l3-9z"/>
  <path fill="#8A6B5B" d="m207 193-8 18h-2a1003 1003 0 0 1 10-18zm65-19-2-3 4-11 1 1c1 5-1 9-3 13zm-55 17-8 12h-1l8-14 1 2z"/>
  <path fill="#AE8772" d="m237 439 17-1-1 2-16-1z"/>
  <path fill="#C1A9A8" d="m273 134 7-7 2 2-9 5z"/>
  <path fill="#8A6B5B" d="m261 196-2 4-2-1 3-4 1 1zm-11-11-3 4v-3l1-1h2zm45 27-1 3-1-1 1-3 1 1zm110 72-1 2-2 1 2-4 1 1zm2-70h-1l1-3 1 2-1 1zm-90-2-1 1v-2l1 1zm31-15 2-2-1 2h-1zm98 73-3-2 3 2zm-82-50-1 2-1-2h2zm-45-28h-2l2-2v2zm5 26-1 2-1-2h2zm96 13h-2 2zm-178-60h-2 2zm80 40h-2 2zm-113-29h-2 2zm10-1h-2 2zm-37 135 2 1-2-1z"/>
  <path fill="#45302A" d="M427 223v2-2z"/>
  <path fill="#9B989B" d="M374 126h-1 1z"/>
  <path fill="#45302A" d="M347 200h1-1zm1-3h1-1z"/>
  <path fill="#C1A9A8" d="M291 140s0 1 0 0zm16-3z"/>
  <path fill="#654A43" d="M435 519z"/>
  <path fill="#C1A9A8" d="M271 136c0-1 1 0 0 0z"/>
  <path fill="#8A6B5B" d="M135 370c0 1 0 0 0 0z"/>
  <path fill="#7E4A3A" d="M159 235c4-15 10-28 20-41l-26 66c0-9 4-16 6-25z"/>
  <path fill="#764132" d="m152 219 3-7 2 1-17 37c-1-6 0-12 3-16l9-15zm8-15 1 1-3 6-1-1 3-6z"/>
  <path fill="#8A6B5B" d="m229 195-1 2-2 1 2-4 1 1z"/>
  <path fill="#A27D68" d="M191 182z"/>
  <path fill="#8A6B5B" d="M185 206c1 0 0 0 0 0z"/>
  <path fill="#A27D68" d="m229 195-1-1h1v1z"/>
  <path fill="#75615E" d="M473 429c4-9 6-19 5-28 6 0 8 2 9 7 2 12-6 16-14 21zm0 0z"/>
  <path fill="#A27D68" d="m447 364 1-1-1 1zM295 118l-1 1 1-1z"/>
  <path fill="#8A6B5B" d="m212 408 3-9 3-2 2 3v1c-1 9 1 18 5 26l1 2c-9-1-16-13-14-21z"/>
  <path fill="#A27D68" d="M290 125h1c0-1 0 0 0 0h-1zm77 403c-6 3-12 4-19 2l19-2zm20 1h-2 2z"/>
  <path fill="#45302A" d="M163 205z"/>
</svg>