<svg xmlns="http://www.w3.org/2000/svg" version="1.0" viewBox="0 0 1280 960">
  <path d="M618 1c-24 1-39 4-60 9-41 10-75 30-96 54-12 14-18 27-25 49l-10 29c-7 20-10 30-11 50-2 21 0 80 3 96 2 9 5 17 9 21 6 7 11 9 16 5 5-3 5-6 6-45 1-40 2-46 10-68 9-22 12-33 14-45l2-12v14l-1 13-7 16c-15 33-16 44-14 102l1 20-2 5c-3 7-7 11-14 15-8 4-9 7-9 15 1 15 18 40 31 45 6 3 11 2 25-3 13-5 22-8 26-8s10 3 13 7c4 4 5 8 8 21 4 21 8 30 17 39l5 5-5 7-6 13c-2 6-2 6-1 9 2 4 7 7 13 7s10-2 12-6c1-3 1-5-2-22v-3l4 1h5l-2 9c-4 11-4 18-1 22 4 4 8 5 17 5 10-1 13-2 15-7l2-4v3c0 3 3 7 6 8h13c10-1 10-1 13-3 2-3 2-4 2-9l-3-13-2-7h5l5-1-2 6-2 14c0 7 0 8 2 10 4 3 11 4 18 4 7-1 12-3 13-7 2-3 0-15-2-22l-2-5 8-1h7v4c-2 7-2 18-2 20 2 6 11 8 21 5 12-3 15-11 8-26l-3-11c0-2 3-6 11-14 15-16 18-20 21-33 2-13 5-17 12-21s15-3 27 1c17 6 29 4 38-4 14-12 22-40 15-52-2-4-4-5-13-10-15-7-18-10-19-24v-8l1 7c3 14 10 20 19 15 6-3 13-15 18-35 6-19 7-28 7-51s-1-29-8-52l-7-25a190 190 0 0 0-50-87C748 23 719 8 675 2c-9-1-49-2-57-1zM480 126h-1l1-2v2zm-2 9h-1l1-2v2zm-1 8c-1 1-1 0-1-1s0-2 1-1v2zm64 82c25 2 41 8 47 18 5 7 5 27 0 40-2 4-4 7-12 15l-19 16c-18 13-26 15-36 10-6-3-14-11-18-17-6-11-10-32-10-52 0-12 1-13 3-18 7-11 19-15 45-12zm196 4c14 4 23 14 25 24 1 12-3 50-7 57l-7 7c-5 2-6 2-16 2-11 1-12 0-18-3-21-9-45-33-50-47-2-6-2-19 1-23 4-9 17-16 37-19l16-1c9 1 14 1 19 3zm65 12v32l-1-12c-1-9-1-13-4-19-3-11-4-13-1-15 5-2 5-2 6 14zm-173 54a456 456 0 0 1 32 61v24c-2 5-7 12-10 14l-3 1-4-3-9-14c-6-11-10-15-13-15s-8 5-12 13-6 10-9 7c-2-1-2-2-2-9 1-5 2-14 5-22a475 475 0 0 0 12-46c3-8 8-16 9-16l4 5zm-21 165c2 0 2 0 2 2l-2 7-1 6-1-5-3-8-2-3h2l5 1z"/>
  <path d="M4 140c-4 4-4 10-4 31 2 33 11 61 36 108 51 98 128 184 243 277a1517 1517 0 0 0 356 205c56 23 143 53 227 78l10 3v-29c-2-10-5-16-10-21-9-8-10-8-69-29l-56-19a1331 1331 0 0 1-367-187c-20-15-27-21-42-35-19-17-19-20-1-5a1240 1240 0 0 0 468 241c26 9 46 15 57 16 11 2 17 0 31-6 12-6 19-14 19-20 0-3-1-3-4-4a1661 1661 0 0 1-146-48l17 6 20-10c71-37 133-76 197-126a897 897 0 0 0 265-299c13-28 23-52 27-73 2-9 2-45 1-50l-3-5c-3-1-3-1-6 1l-7 8a1418 1418 0 0 1-191 226 1459 1459 0 0 1-428 276c-1 1 24 13 43 21 14 6 10 7 39-8a1244 1244 0 0 0 235-153c1 1-24 23-40 36-46 36-110 76-194 119l-26 13-10-4c-101-41-186-83-250-121A1289 1289 0 0 1 19 151c-4-6-10-13-12-13l-4 2zm1204 157-2 2 1-2 2-2-1 2zm-6 9zM713 682l1 1-3-1v-1l2 1z"/>
  <path d="M768 393c-5 2-9 6-16 16-6 10-8 14-11 24-4 10-4 14-8 38l-4 25c-3 11-8 18-19 24l-6 4v-2l2-9c0-5 0-6-2-8-4-5-15-6-23-3-5 3-11 9-12 13 0 2 1 10 4 15 0 2 0 2-4 2h-5l2-7 1-11c0-6-2-9-8-11-8-2-21-1-25 3-2 2-2 3-2 11l2 12c1 3 1 3-4 3h-5l2-6c2-3 2-8 2-13 1-6 0-7-2-9-5-4-27-3-31 0-3 3-3 12 0 21l2 7-10-1 1-5 2-12-1-10c-3-3-8-5-15-5-8 0-13 1-16 4-2 3-2 4-2 12v9c-3 0-11-5-15-8-8-8-10-14-12-35-1-16-13-52-20-67-7-14-17-20-28-16-11 5-14 14-8 28 12 31 12 35 11 76 0 14 0 15 2 20 4 8 8 12 25 25 10 7 19 15 33 30 13 14 20 19 23 21 7 3 16 3 35 1 19-1 37-2 49 0 18 2 26 3 32 2 12-2 17-6 34-26 8-11 12-15 23-23 14-11 21-18 24-23l2-18c1-18 3-25 10-50s11-46 12-57c0-8 0-9-2-11-3-2-14-3-19 0zM250 671c-21 6-33 21-33 44 0 26 14 44 36 46 14 1 24-5 29-17l3-6c7-2 34 44 46 80l17 59c11 45 15 54 29 67 13 12 29 17 49 16 33-2 47-15 45-42-2-23-12-35-29-37-12-1-18 3-23 14l-3 5-4-5c-14-14-17-25-19-58-1-26 1-34 12-46l6-9c0-2-4-4-13-5-15-2-24-7-29-15l-9-17c-12-23-21-36-34-49a90 90 0 0 0-39-23c-8-3-29-4-37-2zm741 0c-9 2-13 4-21 8a149 149 0 0 0-54 60c-12 24-15 27-35 37-7 2-12 6-13 7-1 2 0 5 5 11 6 8 8 15 9 28 0 11-1 29-4 41-2 12-8 24-17 33l-3 4-3-6c-6-10-11-13-21-13-20 0-32 17-31 44 1 17 9 27 27 32 9 3 28 4 37 2 19-5 35-17 44-35 3-7 7-20 15-51 13-49 18-66 31-92 12-23 26-43 30-43l5 7c5 12 12 16 24 16 17 0 30-9 36-26 3-7 4-26 2-33-4-16-15-26-32-30-7-2-23-2-31-1z"/>
  <path d="M465 716a4161 4161 0 0 1-92 31c0 3 5 12 9 16 12 10 33 12 64 4 21-5 111-35 113-37l-10-5a428 428 0 0 1-45-22l-39 13zm43 38c-77 26-81 27-89 33-12 8-16 15-18 31-1 9 0 24 2 23a2684 2684 0 0 0 230-78l-12-6a1092 1092 0 0 1-53-24l-60 21zm-277 21c-5 2-7 5-7 11s5 20 8 26l2 4c-2 0-6-8-12-26-2-5-7-10-11-13-3-1-6-2-15-2-10 0-12 1-15 3-8 4-9 13-4 33 5 21 13 34 24 44 9 7 13 8 36 9 18 1 66 0 82-2 11-1 14-6 14-19 0-14-6-31-17-50-7-10-12-16-17-18-11-5-23 0-23 10 0 5 2 14 5 18l2 4c-2 0-7-10-10-16-3-10-4-12-10-15-4-2-5-2-16-3-10 0-12 0-16 2zm745-1c-9 3-17 14-26 33-7 14-10 26-10 37 0 13 3 17 15 18 31 3 93 3 104 0 6-2 16-10 21-16 9-12 17-36 17-54 0-6 0-8-2-10-3-5-6-6-14-7-20-1-27 4-33 23l-7 15 3-9c2-7 4-11 4-16 0-6 0-7-2-10-4-3-9-5-19-5-16 0-23 4-27 16-2 6-7 15-8 15l2-6c4-11 3-19-2-22-3-3-13-3-16-2z"/>
  <path d="M125 776c-27 5-42 25-42 57a60 60 0 0 0 34 58c24 11 43 6 65-15 11-12 15-22 9-24-3-1-5 0-13 6l-11 7c-8 4-23 2-25-3l9-5c17-9 24-19 24-38 0-10-1-15-5-23-8-16-26-23-45-20zm1002 1c-8 2-13 5-19 11-15 15-16 44-2 59 4 4 12 10 19 12 6 3 5 4-2 6-11 3-23 1-29-5-3-4-9-8-12-8s-5 4-5 9c3 14 19 29 37 33 15 4 28 3 41-3 24-12 36-37 33-66-3-31-20-48-48-49-5-1-10 0-14 1z"/>
</svg>