<svg xmlns="http://www.w3.org/2000/svg" version="1.0" viewBox="0 0 285 320">
  <clipPath id="svgClip">
    <path id="handleft" d="m175 9-4 5-6 5-7 4c-2 2-5 5-7 5-3 1-7 5-10 8l-10 8-7 7-5 5c-4 2-9 8-9 11l-4 9-6 14c-2 5-5 10-10 16-9 11-10 14-13 26l-6 13-7 12-8 14-9 19c-6 13-9 17-18 27-6 7-8 11-11 23l-7 17c-4 8-4 10-3 15 1 13 2 17 8 25 2 4 14 12 18 13a277 277 0 0 0 50-1l2-10c1-4 3-10 5-12l2-7 9-12 13-16 6-7 11-2c9-1 20-4 31-9l11-9a146 146 0 0 1 34-25c2 0 4-6 5-12 1-7 1-7 7-14 8-7 12-13 17-24l5-8c2-1 3-17 3-21l-3-6c-2-2-2-3-1-5 3-7 5-20 5-25-1-4-1-4 2-8l6-9 10-10c7-6 13-15 14-21 1-4-1-7-6-10-5-1-5-1-6-7 0-7-3-9-8-9-3 0-5 1-8 3l-8 3-8 4-6 3-6 2-7 2c-3 0-5 1-8 3-6 5-9 6-15 6-3 0-5 1-7 3-2 1-4 2-5 1l-6 2c-4 3-5 4-5 2l4-3c5-3 14-12 16-17l2-8c0-9-10-13-16-8z"/>
  <clipPath>
</svg>
